<svg xmlns="http://www.w3.org/2000/svg" viewBox="0 0 72 72" fill-rule="evenodd" xmlns:v="https://vecta.io/nano"><path d="M36 72h0c19.882 0 36-16.118 36-36h0C72 16.118 55.882 0 36 0h0C16.118 0 0 16.118 0 36h0c0 19.882 16.118 36 36 36z" fill="#95cf00"/><path d="M41.727 21.601c-.792 0-1.432-.624-1.432-1.394s.641-1.391 1.432-1.391 1.432.621 1.432 1.391-.641 1.394-1.432 1.394h0zm-11.454 0c-.792 0-1.432-.624-1.432-1.394s.641-1.391 1.432-1.391 1.432.621 1.432 1.391-.641 1.394-1.432 1.394h0zm12.301-5.582c4.048 1.837 6.788 5.317 6.788 9.299H22.638c0-3.982 2.74-7.462 6.791-9.299l-.536-.785-.534-.773-1.189-1.738a.46.46 0 0 1 .133-.643.49.49 0 0 1 .664.13l1.276 1.863.536.782.542.796c1.725-.652 3.651-1.016 5.678-1.016s3.952.364 5.678 1.016l.545-.796 1.815-2.644a.48.48 0 0 1 .658-.13c.22.141.281.429.133.643l-1.189 1.738-.534.773-.534.785zm-19.73 11.156h26.518v20.439c0 1.623-1.351 2.944-3.022 2.944h-2.184c.075.246.119.502.119.773v5.884c0 1.538-1.285 2.786-2.868 2.786s-2.862-1.247-2.862-2.786V51.33c0-.271.041-.528.113-.773h-5.318c.072.246.116.502.116.773v5.884c0 1.538-1.285 2.786-2.865 2.786s-2.865-1.247-2.865-2.786V51.33c0-.271.041-.528.116-.773h-2.181c-1.67 0-3.024-1.321-3.024-2.944V27.175h.206zm-4.979 0c1.58 0 2.862 1.247 2.862 2.786v11.924c0 1.538-1.282 2.786-2.862 2.786S15 43.422 15 41.884V29.96c0-1.538 1.282-2.786 2.865-2.786zm36.273 0c1.58 0 2.862 1.247 2.862 2.786v11.924c0 1.538-1.282 2.786-2.862 2.786s-2.865-1.247-2.865-2.786V29.96c0-1.538 1.282-2.786 2.865-2.786z" fill="#fff"/></svg>