<svg xmlns="http://www.w3.org/2000/svg" viewBox="0 0 480 480" xmlns:v="https://vecta.io/nano"><path d="M448 352.3c-11.1 23.9-16.4 34.6-30.5 55.7-19.8 29.5-47.9 66.4-82.5 66.6-30.8.2-38.7-19.7-80.6-19.3-41.8.2-50.5 19.7-81.3 19.4-34.6-.3-61.1-33.5-81-62.9C36.5 329.1 30.7 232.2 65 180.7c24.3-36.6 62.7-58 98.8-58 36.7 0 59.8 19.7 90.2 19.7 29.5 0 47.4-19.8 89.9-19.8 32.1 0 66.1 17.1 90.4 46.6-79.5 42.6-66.6 153.5 13.7 183.1zM317.1 84.4c16.6-20.6 29.1-49.6 24.5-79.2-27 1.8-58.6 18.5-77 40.1-16.7 19.7-30.6 49-25.2 77.3 29.5.9 60-16.1 77.7-38.2z" fill="#42a5f5"/><path d="M404.3 193.3C290.4 318.2 186 200.9 45.5 290.1c4.9 39.5 20 82.2 46.5 121.7 19.8 29.5 46.4 62.7 81 62.9 30.8.3 39.6-19.2 81.3-19.4 41.8-.3 49.7 19.6 80.6 19.3 34.6-.3 62.7-37.1 82.5-66.6 14.2-21.1 19.5-31.8 30.5-55.7-67.8-25.1-87.2-108.2-43.6-159z" fill="#1e88e5"/></svg>