<svg xmlns="http://www.w3.org/2000/svg" height="629.333" viewBox="-3 0 471 472" width="629.333" xmlns:v="https://vecta.io/nano"><path d="M294.102 456L272.5 384h-80l-21.602 72H144.5v16h176v-16zm0 0" fill="#d6d9db"/><path d="M24.5 64C11.246 64 .5 74.746.5 88v248h464V88c0-13.254-10.746-24-24-24zm0 0" fill="#4398d1"/><path d="M.5 336v24c0 13.254 10.746 24 24 24h416c13.254 0 24-10.746 24-24v-24zm0 0" fill="#d6d9db"/><path d="M279.699 408l-7.199-24h-80l-7.199 24zm0 0" fill="#c1c7c9"/><path d="M392.5 0h-320c-13.254 0-24 10.746-24 24v312h368V24c0-13.254-10.746-24-24-24zm0 0" fill="#87ced9"/><path d="M392.5 0h-64l-280 280v56h368V24c0-13.254-10.746-24-24-24zm0 0" fill="#71c4d1"/><path d="M72.5 24h16v16h-16zm32 0h16v16h-16zm32 0h16v16h-16zm0 0" fill="#5eb3d1"/><path d="M298.836 234.414L173.789 218.91l-18.473-82.719 106.582-67.223zm0 0" fill="#e0e3e6"/><path d="M113.961 145.426l41.383-9.242 18.48 82.762-41.383 9.242c-22.855 5.102-45.516-9.289-50.621-32.141s9.289-45.52 32.141-50.621zm0 0" fill="#e3584b"/><path d="M155.316 136.191l13.184 59.176-45.687 10.234a46.7 46.7 0 0 1-41.168-10.641l.191 1.094c5.113 22.832 27.754 37.207 50.594 32.121l41.359-9.23zm0 0" fill="#d64740"/><path d="M124.16 230l33.09-7.387 14.777 66.176-33.09 7.391zm0 0" fill="#e0e3e6"/><path d="M336.535 130.957l41.363-9.23 3.484 15.617-41.367 9.227zM312.5 60.684l24-24.004 11.316 11.313-24.004 24.004zm36.426 154.476l7.156-14.312 31.996 16-7.152 14.313zm0 0" fill="#a7e1eb"/><path d="M323.578 263.609c-4.43 1.082-9.109.336-12.984-2.07s-6.613-6.277-7.598-10.73l-44.25-198.16c-2.039-9.137 3.715-18.199 12.852-20.242 9.137-2.035 18.195 3.719 20.238 12.859l44.258 198.184c2.004 9.004-3.555 17.961-12.516 20.16zm0 0" fill="#e3584b"/><path d="m48.5 320h368v16h-368zm0 0" fill="#5eb3d1"/><path d="m416.5 64h16v272h-16zm0 0" fill="#3e8cc7"/><path d="M336.094 243.449L311.18 131.902c-6.266 13.832-15.328 26.215-26.617 36.371l18.402 82.566c2.039 9.141 11.105 14.895 20.242 12.852s14.895-11.105 12.852-20.242zm0 0" fill="#d64740"/><path d="M168.402 194.801l5.387 24.109 125.047 15.504-14.473-64.82zm0 0" fill="#c7cacc"/></svg>