<svg id="Layer_1" data-name="Layer 1" xmlns="http://www.w3.org/2000/svg" viewBox="0 0 572.16 223.54"><defs><style>.cls-1,.cls-2{fill:#4169e1;}.cls-2{stroke:#231f20;stroke-miterlimit:10;stroke-width:8px;}.cls-3{font-size:22.5px;fill:#231f20;font-family:SegoeUI-Bold, Segoe UI;font-weight:700;}.cls-4{letter-spacing:0.04em;}.cls-5{letter-spacing:0em;}.cls-6{letter-spacing:-0.02em;}.cls-7{letter-spacing:0em;}</style></defs><path class="cls-1" d="M655.69,806a55,55,0,1,1,55-55A55.07,55.07,0,0,1,655.69,806Zm0-100a45,45,0,1,0,45,45A45,45,0,0,0,655.69,706Z" transform="translate(-431.13 -636.06)"/><path class="cls-1" d="M769.7,806a55,55,0,1,1,55-55A55.07,55.07,0,0,1,769.7,806Zm0-100a45,45,0,1,0,45,45A45.05,45.05,0,0,0,769.7,706Z" transform="translate(-431.13 -636.06)"/><path class="cls-1" d="M883.29,696a55.06,55.06,0,0,0-55,55c0,1.42.05,2.83.16,4.22V850h10V782.84A55,55,0,1,0,883.29,696Zm0,100a45.06,45.06,0,0,1-44.84-41.2c-.11-1.25-.16-2.52-.16-3.8,0-.35,0-.7,0-1a45,45,0,1,1,45,46Z" transform="translate(-431.13 -636.06)"/><path class="cls-1" d="M838.45,750v4.85c-.11-1.25-.16-2.52-.16-3.8,0-.35,0-.7,0-1Z" transform="translate(-431.13 -636.06)"/><path class="cls-2" d="M943.27,770.23" transform="translate(-431.13 -636.06)"/><path class="cls-1" d="M595.67,752.18a55,55,0,1,1-110,0V681l-9.12,9.12L469.48,683l14.12-14.12,7.07-7.07,7.07,7.07L511.86,683l-7.07,7.07L495.67,681v71.23a45,45,0,0,0,90,0Z" transform="translate(-431.13 -636.06)"/><rect class="cls-1" x="494.2" y="660.34" width="0.04" height="10" transform="translate(-756.84 -91.72) rotate(-45)"/><rect class="cls-1" x="482.12" y="665.31" width="10" height="0.04" transform="translate(-758.91 -96.74) rotate(-45)"/><path class="cls-1" d="M431.13,691.06a55,55,0,1,1,110,0v71.23l9.12-9.12,7.07,7.07L543.2,774.36l-7.07,7.07-7.07-7.07-14.12-14.12,7.07-7.07,9.12,9.12V691.06a45,45,0,0,0-90,0Z" transform="translate(-431.13 -636.06)"/><rect class="cls-1" x="532.56" y="772.91" width="0.04" height="10" transform="translate(-825.2 -31.62) rotate(-45)"/><path class="cls-1" d="M1003.29,777a30,30,0,0,1-60,0h10a20,20,0,1,0,20-20v0a30,30,0,1,1,30-30h-10a19.81,19.81,0,0,0-1.12-6.63A20,20,0,1,0,973.29,747v0A30,30,0,0,1,1003.29,777Z" transform="translate(-431.13 -636.06)"/><text class="cls-3" transform="translate(168.67 213.85)">Thin<tspan class="cls-4" x="46.74" y="0">k</tspan><tspan class="cls-5" x="60.22" y="0">. Built. E</tspan><tspan class="cls-6" x="146.38" y="0">x</tspan><tspan x="158.42" y="0">ecu</tspan><tspan class="cls-7" x="195.01" y="0">t</tspan><tspan x="203.68" y="0">e.</tspan></text></svg>