<svg xmlns="http://www.w3.org/2000/svg" width="407" height="349" viewBox="0 0 407 349">
    <path fill="#F0FAFE" fill-rule="nonzero" d="M0 0h159.902v166.866c.75 23.266-2.815 45.26-10.698 65.982-7.882 20.722-18.955 39.263-33.219 55.622-14.263 16.36-31.342 29.81-51.236 40.353C44.855 339.366 23.272 346.092 0 349v-71.981c28.527-9.452 48.046-23.449 58.556-41.99 10.51-18.54 15.765-40.898 15.765-67.073H0V0zm247 0h159.902v166.866c.75 23.266-2.815 45.26-10.698 65.982-7.882 20.722-18.955 39.263-33.219 55.622-14.263 16.36-31.342 29.81-51.236 40.353C291.855 339.366 270.272 346.092 247 349v-71.981c28.527-9.452 48.046-23.449 58.556-41.99 10.51-18.54 15.765-40.898 15.765-67.073H247V0z"/>
</svg>
