<svg xmlns="http://www.w3.org/2000/svg" xmlns:xlink="http://www.w3.org/1999/xlink" viewBox="0 0 500 500" xmlns:v="https://vecta.io/nano"><style><![CDATA[.B{stroke-linejoin:round}.C{stroke:#263238}.D{fill:#fff}.E{fill:#263238}.F{stroke-linecap:round}.G{fill:#25c}.H{fill:none}.I{stroke:#fff}.J{stroke-width:.5}]]></style><use xlink:href="#B" class="G"/><g class="D"><use xlink:href="#B" opacity=".7"/><path d="M447.21 178.71h-78.5a1.45 1.45 0 0 0-1.44 1.44v202a1.45 1.45 0 0 0 1.44 1.45h78.5a1.45 1.45 0 0 0 1.45-1.45v-202a1.45 1.45 0 0 0-1.45-1.44zm-1.44 202h-75.61V181.6h75.61zm-70.13-157.55h64.65a1.44 1.44 0 0 0 1.44-1.45v-34.13a1.43 1.43 0 0 0-1.44-1.44h-64.65a1.44 1.44 0 0 0-1.45 1.44v34.13a1.45 1.45 0 0 0 1.45 1.45zm1.44-34.16h61.76v31.24h-61.76zm-1.44 82.64h64.65a1.43 1.43 0 0 0 1.44-1.44v-34.13a1.44 1.44 0 0 0-1.44-1.45h-64.65a1.45 1.45 0 0 0-1.45 1.45v34.13a1.44 1.44 0 0 0 1.45 1.44zm1.44-34.13h61.76v31.25h-61.76zm-1.44 82.62h64.65a1.44 1.44 0 0 0 1.44-1.44v-34.14a1.44 1.44 0 0 0-1.44-1.44h-64.65a1.45 1.45 0 0 0-1.45 1.44v34.14a1.45 1.45 0 0 0 1.45 1.44zm1.44-34.13h61.76v31.24h-61.76zm-1.44 82.62h64.65a1.44 1.44 0 0 0 1.44-1.45V333a1.43 1.43 0 0 0-1.44-1.44h-64.65a1.44 1.44 0 0 0-1.45 1.44v34.13a1.45 1.45 0 0 0 1.45 1.49zm1.44-34.13h61.76v31.24h-61.76zM348.88 107H137.44a1.44 1.44 0 0 0-1.44 1.4v105.32a1.44 1.44 0 0 0 1.45 1.44h211.43a1.43 1.43 0 0 0 1.44-1.44V108.4a1.43 1.43 0 0 0-1.44-1.4zm-1.45 2.89v97.72H138.88v-97.76z"/></g><path d="M396.43 315.28L391.88 384a1.39 1.39 0 0 1-1.38 1.29h0a1.37 1.37 0 0 1-1.37-1.42l1.87-68.59zm11.64 0l4.55 68.72a1.38 1.38 0 0 0 1.37 1.29h0a1.38 1.38 0 0 0 1.38-1.42l-1.89-68.55zm-45.62 0L367 384a1.38 1.38 0 0 0 1.37 1.29h0a1.38 1.38 0 0 0 1.38-1.42l-1.9-68.55zm-18.59 0L339.31 384a1.39 1.39 0 0 1-1.38 1.29h0a1.39 1.39 0 0 1-1.38-1.42l1.9-68.55z" class="B C E"/><g class="D B C"><path d="M423.13 246l-49.24-1.7c-3.84 0-4.73 1.7-4.73 1.7l-6.48 45.69s-20.15-5.75-24.1-5 1.95 29.42 1.95 29.42h22.8l.41-1.72h51.48l13.67-65.12c-.83-2.98-5.76-3.27-5.76-3.27z"/><path d="M405.85,274.58s4.62,30-.68,33.5c-.82.54-5.27,3.1-9.43,2.68-3.34-.34-26.94,0-26.94,0s-3.28-6.24-3.94-10.84,4.5-24.34,4.5-24.34Z"/></g><path d="M367.2,290.65s-34.16,3.55-35.77,4.51-9,7.41-7.73,11.6-1.93,4.51,1,5.16,44.46.64,44.46.64" class="B C F G"/><path d="M417.3 316.06h-81.17V310h81.17z" class="B C D"/><path d="M398.13,291.94h-48.9s-2.57,2.9-2.9,9,.33,7.41,4.84,9,44.57.78,44.57.78" class="B C F G"/><path d="M359.6 369.54l-5.12-12.13-8.39 1.59 6.42 10.82-3.7 7.41-8 5.23s-.93.92 3.07.61 12.3 0 12.3 0l5.23-6.15s1.9-3.13-1.81-7.38z" class="B C D"/><g class="E B C"><path d="M361.84 374.84l.21 7.93h-1.25l-1.67-3.96 2.71-3.97z"/><path d="M356.19 383.11l5.23-6.15s1.35-2.29-.51-5.59c-3.72 6.36-8.67 8.27-8.67 8.27l-5.16-1.24-6.26 4.1s-.93.92 3.07.61 12.3 0 12.3 0z"/></g><path d="M339.49,307.73l17.15,51.85-12.17,2.16-24-54s-1.93-8.06,3.22-10.63,20.3-3.87,20.3-3.87" class="B C F G"/><path d="M394.5,316.05s-5.91-28.71-1.95-29.42,24.1,5,24.1,5L423.13,246s6.84-1.08,7.56,5-13.39,65.05-13.39,65.05Z" class="B C E"/><g class="D B C"><path d="M324.91 231.52l-3.05-5a3.23 3.23 0 0 0-2.81-1.54l-2.87.05-4.91-1.47a1.64 1.64 0 0 0-1.74.55l-.18.23 4.52 2-4.51 1.66-4.79-2.43a.9.9 0 0 0-1.13.26h0a.9.9 0 0 0 .16 1.26l6.7 5.17a1.87 1.87 0 0 0 1.5.36l7.41-1.49 2.07 2.26z"/><path d="M376.57 221.26l-27.47 28.73-26.22-21.19-3.62 2.63 28.85 32.69 25.01-13.47 3.45-29.39zm41.1 7.34l14.4 44.25-12.42.36-12.35-20.77s6.94-20.95 10.37-23.84z"/><path d="M402,221l15.67,7.65-13.12,36.69,1.55,10.23-36.74.06,4.38-16.48-3-10.56a8.09,8.09,0,0,1-.06-4.2l5.88-23.08L392,218.83Z"/><path d="M401.25 218.85s3.08 2.08 3.18 3.93c.05 1.09 0 3-.1 4.46a9.47 9.47 0 0 1-.77 3.31l-5.55 6.7-6.42-5.07-5.33 2.72s-1-8.17 1.33-13.87 12.47-3.61 13.66-2.18z"/><path d="M405.66 203l-1.85 7.53c-.59 3-1.78 9-1.67 11.25s-9.36 11.83-10.55 10.4-2.44-9.74-2.44-9.74l1.18-13.44s12.34-13.67 15.33-6z"/><path d="M385.87 196s-1.69 2.79-1.69 4 .59 3.58.49 4.27-1.78 3-2 3.78a1.38 1.38 0 0 0 .69 1.69 13.2 13.2 0 0 1 1.19.69s.5 6.16 1.3 7.75 1.49 2.29 3.87 2.49 8.05-2.29 8.84-4.28.9-4.37 1-7.25-1.89-7-3.38-10.93-7.73-6.09-10.31-2.21z"/></g><g class="E B C"><circle cx="411.52" cy="208.71" r="7.63"/><path d="M385.83 195.57s3.07-2.65 8.59 2.62 3.42 12.89 7.11 14.47 10.52-6.32 11.31-10.26-1.58-12.11-8.95-13.69-16.4-.5-18.06 6.86z"/><path d="M385.83 195.57a4.1 4.1 0 0 1 4.65-4.49c5 .27 5.52 8.16 8.15 11.32s3.95 2.63 3.95 2.63-4.47 1.31-7.37-.27-4.3-10.49-9.38-9.19z"/></g><g class="F B"><path d="M394 190.16a15.6 15.6 0 0 1 6 6.81c2.27 4.81 2.27 8.78 7.66 8.5 0 0-2.55.57-6.52-1.42s-4.82-7.65-7.37-9.92a8.39 8.39 0 0 0-5.1-2.27m24.17 10.54s-.23 7.22-5.77 8.74" class="H I J"/><path d="M397.38,209.77s5.28-6.91,6.52-1.75-3,6.42-5,5.83-1.72-1.66-1.72-1.66" class="C D"/></g><path d="M385.63,268.9s-10.08,1.4-11.76,1.4-5.88,5.32-5.88,5.32h18.48Z" class="B C D"/><path d="M428.45,262.12l3.62,8.16a3.22,3.22,0,0,1-3,4.25l-43.7.25.28-5.88,33.88-5.36" class="B C D F"/><path d="M369.96 374.84l.21 7.93h-1.25l-1.67-3.96 2.71-3.97z" class="B C E"/><path d="M367.72 369.54L366.11 358l-8.38.54 2.9 11.36-3.7 7.41-8 5.23s-.92.92 3.08.61 12.3 0 12.3 0l5.23-6.15s1.89-3.21-1.82-7.46z" class="B C D"/><path d="M364.31 383.11l5.23-6.15s1.35-2.29-.52-5.59c-3.72 6.36-8.67 8.27-8.67 8.27l-5.15-1.24-6.27 4.1s-.92.92 3.08.61 12.3 0 12.3 0z" class="B C E"/><path d="M363.88,298.8l3.59,61.32-11.37.27L345,304.68s.21-10.61,3.6-11.83,12.39.09,12.39.09" class="B C F G"/><g class="D B C"><path d="M314.18,166.81l14.11,39.55s-1.86,8.95-7.46,8.58-7.09-8.21-8.58-9.33-3.73-9.7-3.73-9.7Z"/><path d="M277.68 158.88l-22.94 8.28 8.8 63.61h41.39l9.25-63.96-24.76-7.75-11.74-.18z"/></g><path d="M279.89 169.78l3.31 4.99-2.87 42.32 4.22 11.02 4.33-10.72-3.71-41.99 2.98-7.21-4.13-5.43-4.13 7.02z" class="B C G"/><g class="D B C"><path d="M284.47 167.72l-5.91 4.43-3.89-11.55 2.71-5.85 12.09-.29 2.95 2.65-.59 14.74-7.36-4.13z"/><path d="M290.72 151.75l-.92 7.43-6.62 8.54-4.95-8.66v-13.93s8.67 2.17 12.49 6.62z"/><path d="M274.83 136.31c0-6.75 4.92-12.22 11-12.22s9.45 5.77 9.45 12.52c0 2.18-.45 5.92-.63 7.91-.31 3.4-1.34 4.84-3.35 7.89-6.59 10-12-4.67-14.77-9.6a13.12 13.12 0 0 1-1.7-6.5z"/><path d="M290.61 138.43l.93 6.97-3.27-.09" class="F"/><path d="M297.91 137.22l-15.72.07a3.67 3.67 0 0 0 .78 3.57c1 1 5.07.65 5.72.39s1-3.12 1-3.12h1.17s.13 3 1.81 3.25 3.87.17 4.29-.13c1.86-1.25.95-4.03.95-4.03z"/></g><path d="M276.77 143.94s3.54 7.25 4.38 9.76 5 4.47 9.21 3.07 3.07-7.63 3.07-7.63-4.47-3.82-5.3-3-5.31 4.47-5.59 3.63-2.23-5.86-2.23-5.86l-.91-3.56 1.87-1.2a1.4 1.4 0 0 0 .25-1.88l-.88-1.27a1.42 1.42 0 0 1-.23-1.08c.23-1.09.86-3.35 2.32-4 2-.83 4.43.38 6.67.94s4.67-1.46 4.67-1.46l1 3.32a15.93 15.93 0 0 0 4.54-7.7c1.12-4.75-10.33-6.7-14-6.7s-9.49 2-11.17 7.26 1.34 16.42 2.33 17.36z" class="B C E"/><g class="F B"><path d="M285.83 126.05s2.08 3.12-.65 3.77-8.05-1.69-10.39-.78m6.36 3.89s-4.28-.52-6 1.3m16.3 14.47s-3.15 1.64-4.71-.31" class="H I J"/><path d="M277.3,141.73s-3.09-3.4-3.09.31.93,3.71,2.78,5,2.48-.31,2.48-.31" class="C D"/></g><path d="M318.56 372.24h.14l-.27-1.36-13.5-140.1h-41.39l-13.61 141.45h.15l8.78.75s9.74-32.7 9.74-35.14 2.78-25 2.78-25l13.81-48.55 12.21 48.55 2.78 25c0 2.39 9.75 35.16 9.75 35.16l8.26-.71h.37z" class="B C E"/><path d="M301.84 239.02l-9.21 13.15m4.28-10.19l-5.59 9.21m-20.71-9.86l8.21 8.87m-8.87-5.59l11.83 11.84M266 232.12h36.5" class="F H I J B"/><g class="C B"><path d="M250.08,372.23s-5.27,4.15-8.31,5.29-8.72,4.17-8.72,4.17,0,1.9,4.93,1.9h19.35L257,372.23Z" class="E"/><path d="M257.26,381.52a188.23,188.23,0,0,1-23.18-.37l-1,.54s0,1.9,4.93,1.9h19.35Z" class="D"/><path d="M317.76,372.23s5.28,4.15,8.31,5.29,8.73,4.17,8.73,4.17,0,1.9-4.94,1.9H310.52l.35-11.36Z" class="E"/><g class="D"><path d="M310.58 381.52a188.23 188.23 0 0 0 23.18-.37l1 .54s0 1.9-4.94 1.9h-19.3zm-55.84-214.36l-15.24 40.69h14.62l5.46-11.1-4.84-29.59z"/><g class="F"><path d="M321.41,201.55c-6.1-2.52-25.67-3.77-26.69-3.77s-32.83-2.62-35.44-3-5.6,5.6-5.6,5.6l13.8-.38,16.79,3.36s34,12.31,36.56,11.57a2.28,2.28,0,0,0,.92-.58"/><path d="M250.32 199.64l52.6-5.22.38 4.47-45.52 13.81s-8.2 1.86-14.55.74-3.35-7.46-1.86-11.19"/></g><path d="M302.93 194.42l10.07-.38 2.98 5.97-12.68-1.11-.37-4.48z"/></g><path d="M370 282.16l8.59 102.27a1.13 1.13 0 0 0 1.35.94 1.1 1.1 0 0 0 .83-1.18l-5.85-102zm57.73 0l8.62 102.61a1.12 1.12 0 0 0 1.35.94 1.1 1.1 0 0 0 .83-1.18l-5.87-102.37zm-238.24 0L185 383.54a1.12 1.12 0 0 0 .84 1.19h0a1.07 1.07 0 0 0 1.33-.92l7.27-101.65zm-53.21 0l-4.52 101a1.13 1.13 0 0 0 .85 1.19 1.08 1.08 0 0 0 1.33-.92l7.24-101.31z" class="E"/><path d="M133.08 276.49h305.89v8.78H133.08z" class="G"/><g class="E"><path d="M133.08 276.49h305.89v3.01H133.08z"/><path d="M362.42 276.49h76.54v8.78h-76.54z"/></g><path d="M130.35 273.57h311.34v3.35H130.35z" class="G"/><path d="M365.61 273.57h76.07v3.35h-76.07z" class="E"/><path d="M199.7 273.27h41.78a.81.81 0 0 0 .75-.49l11.57-26.38a.81.81 0 0 0-.75-1.13h-41.78a.81.81 0 0 0-.74.48L199 272.13a.81.81 0 0 0 .7 1.14z" class="D"/><path d="M203.62 271.21h35.65a.69.69 0 0 0 .63-.41l9.87-22.51a.69.69 0 0 0-.63-1h-35.65a.69.69 0 0 0-.64.42L203 270.24a.69.69 0 0 0 .62.97z" class="G"/><g class="D"><path d="M179.29 271.52h62.77v2.05h-62.77z"/><path d="M211.64 271.52h30.43v2.05h-30.43zm39.52-14.27h11.07v16.36h-11.07z"/><path d="M261.74 271.38h-1.16a.91.91 0 0 1 0-1.82h1.16a1.74 1.74 0 0 0 1.73-1.73v-4a1.74 1.74 0 0 0-1.73-1.73h-1.49a.91.91 0 1 1 0-1.82h1.49a3.55 3.55 0 0 1 3.55 3.55v4a3.55 3.55 0 0 1-3.55 3.55zm86.98 1.89h-41.78a.81.81 0 0 1-.74-.49l-11.57-26.38a.81.81 0 0 1 .74-1.13h41.78a.82.82 0 0 1 .75.48l11.57 26.38a.82.82 0 0 1-.75 1.14z"/><path d="M369.13 273.57h-62.77v-2.05h62.77z"/><path d="M349.64 273.57h-43.28v-2.05h43.28zm-26.9-17.35a2.46 2.46 0 1 1-3.37-1 2.49 2.49 0 0 1 3.37 1zm-195.37-77.65l3.08 30.43 14 40.53-4.79 2.74-16.44-37.1-8.21-31.85s-.69-9.58 2.74-11 8.25.09 9.62 6.25zm17.12 71l3.43 8.22c.35 1.71.7 5.2-.65 6.76-1.63 1.88-3.12.43-3.12.43s-4.11-1-4.11-4.45l-.34-8.22z"/></g><g class="F"><path d="M141.13 259.78l5.77 1.5" class="H"/><path d="M142.51,255.89l1.64,2.58s-3.82,6.53-1.77,4.82,5.88-3.79,5.54-5.5a27.2,27.2,0,0,0-2.28-5.16" class="D"/></g><path d="M111,142s-3.52-3.8-11.64-1.36-10,15.44-9.75,21.93,6.5,13.81,4.61,17.06-8.94,10.83-8.4,19,7.31,14.62,17.06,11.64S111,195.36,109.06,191s2.17-6.23,3.52-15.71-7.31-17.33-7.31-24.1,7-5.68,7-5.68Z" class="E"/></g><g class="F H I J B"><path d="M98.8 167.7l4.25 8.5c4.94 10.08 1.08 13.72-6.43 19.3s-5.79 12.44-3.86 13.5m15.66-64.33s-10.08.86-12.66 7.29c-1.56 3.91-.36 8.29 1.94 13.39"/><path d="M101.05 206.49a6.06 6.06 0 0 0 2.43.38M111 144s-9.44 1.71-11.58 8.57 10.51 17 11.15 24.46-8.37 11.82-11.57 17.61c-2.25 4.06-2 8.53.37 10.78"/></g><g class="C B"><path d="M135.22,282.07s-2.33,20.12-4.67,26.54-7.58,56.87-7.87,59.79,7.58,9.62,10.79,11.67,1.75,2.62-1.75,2.91-7.58-.29-9.33-3.5-5.84-4.08-5.84-4.08l-.58,7H114.8l-.87-8.75a10.08,10.08,0,0,1,.87-5.83c1.46-3.21,2-9.92,2-19s-1.75-23.63-.88-30.63,4.38-12.25,4.38-18.08.29-14.58.29-14.58Z" class="D"/><path d="M113.93,373.65a9.66,9.66,0,0,1,.37-4.49c1.81,3.06,7,7.21,11,8.86a14.59,14.59,0,0,0,6.89,1.16c.47.35.91.65,1.28.89,3.21,2,1.75,2.62-1.75,2.91s-7.58-.29-9.33-3.5-5.84-4.08-5.84-4.08l-.58,7H114.8Z" class="E"/><path d="M118.3 285.28l-9.62 27.7-16.92 47.54c-1.17 5.25-1.75 14.88-5 19.84s-6.42 7.29-5.84-1.46 5.84-15.17 7-21.88 1.75-30.91 5.83-41.7 8.46-19.54 9-22.75a75.37 75.37 0 0 0 .58-9.63z" class="D"/><path d="M81.52 375.15a8.66 8.66 0 0 0 1.48 4.62c1.68 1.88 4.39-1.77 5.8-4a18.93 18.93 0 0 1-2 4.58c-3.21 4.95-6.42 7.29-5.84-1.46a26.24 26.24 0 0 1 .56-3.74z" class="E"/><path d="M116 167.9s-1.75 1.46-2.92 11.38 6.13 40.83 6.13 40.83-12.54 20.54-15.46 30.75-4.67 48.46-4.67 48.46 6.13 2.34 18.67 3.21S137 300.2 137 300.2l.58-63c0-8.41.59-27.54 1.46-29.87s3.5-8.46 3.5-10.79S125 169.36 125 169.36z" class="D"/><path d="M103.72 250.86c2.3-8 11.82-29.28 15.22-32.94 5.17 1.72 14.6 3.42 18.81 2.16-.13 3-.2 14.2-.2 17.07l-.58 63s-6.71 3.21-19.25 2.33-18.67-3.21-18.67-3.21 1.75-38.2 4.67-48.41zm18.75-117.34s3.13-6.82 9.32-6.82 8.94 5.5 7.57 10.31 4.12 3.44 4.81 6.54-4.47 5.15-7.22 5.15-14.48-15.18-14.48-15.18z" class="E"/></g><path d="M131.51 132.82c1.84-1 4-1.72 5-.16 1.93 3-4.07 5.36-2.14 8.58s6.65 2.36 6.43 3.43-3.21 1.71-3.21 1.71M128.36 135s.59-.51 1.47-1.13" class="F H I J B"/><g class="C B"><path d="M138.34 149.39a3.12 3.12 0 0 1-1-1.26c-.5-3.69-1.58-7.32-3.62-9.36a19.83 19.83 0 0 0-11.23-5.25 7.91 7.91 0 0 0-3.71.34c-5.31 1.86-9.87 5.53-8.89 14.38 1.08 9.75 8.67 12.19 8.67 12.19l.54 6 7.58 3.52.27-6.5s5.14 2.16 7 1.89 2.44-2.71 3.25-6.23a26.34 26.34 0 0 0 .44-4.87l2.27-2.26c1.29-1.31.02-1.63-1.57-2.59z" class="D"/><path d="M109.87 148.24c-1-8.85 3.58-12.52 8.89-14.38a7.91 7.91 0 0 1 3.71-.34 21.49 21.49 0 0 1 8.12 2.82c-1.52-.31 1.07 4.16-1.31 7a22.13 22.13 0 0 1-7.77 6.22s-2.7-2.17-3.52.81-.54 5.14 1.63 5.69 3 0 3 0-1.44 3.41-4 4.82v-.49s-7.62-2.39-8.75-12.15z" class="E"/><g class="D"><path d="M130.55 168.19l-1.45 7.88-15.46-8.17 1.46-7.29 15.45 7.58zm-7.47 66.44a32.4 32.4 0 0 0 4.86.66c1.27-.08 3-1.51 4.28-.9s3.07 4.46 3.07 4.46 1.7.86 1.21 1.77-2.59 1.75-2.59 1.75-2 1.89-3.16 2.08-8.23-5-8.23-5z"/><path d="M123.83 238.37a2.45 2.45 0 0 0-.75-3.74l-19.43-18.2 21.16-32.9a7.61 7.61 0 0 0-13.15-7.65l-18.34 36.45a5.06 5.06 0 0 0-.16 7.1l.07.07c1.84 2.84 22.08 17.69 28 19.63a2.43 2.43 0 0 0 2.6-.76zM200.71 188l2.51 9.28a27.44 27.44 0 0 1-.25 3.26l2.21 3.43a1 1 0 0 1-.31 1.34l-3.41 2-1 9c-.5 1-9 .76-9 .76l-2.76 5.26-14.3-5.51 3.76-10.29-.78-15.53s8.78-7.76 23.33-3z"/></g><path d="M190.92 206.9s-2.49 2.34-4.36 2.5-7.95-1.25-8.42-1.87-4.67-9.35-4.52-13.56.32-10.44 4.83-12.46 11.69-1.41 15.43-3.74 9.66-4.21 12.78-.16.78 9.66-1.71 12-5.61 3-5.3 4 2.18 2.18 1.09 3.74-5 3-5 3.58.94 2.81-.15 3.12-2.19-2.18-3.28-2.18-3.41 3.01-1.39 5.03z" class="E"/></g><g class="F B"><path d="M184.41 199.75a7.91 7.91 0 0 0-1.14 1.66m21.62-17.81a10.32 10.32 0 0 1-5.7 8.08c-4 2.07-9.33 3.76-12.87 6.36m13.33-4.38l-7.35 6.09a32.38 32.38 0 0 1-8.55 4.75" class="H I J"/><g class="C"><path d="M190.67,207.32l2,.5a6.91,6.91,0,0,0,1.51,5.27" class="D"/><g class="H"><path d="M192.99 201.95l14.12-3.5"/><path d="M203.48,198.17l3.22.14s1.11,3.64-2.24,4.06"/></g></g></g><path d="M189.24 371.06s13 8.21 15.29 8.21 3.43 2.06 2.29 2.29-8.22.45-13 .68-8-.23-10.73-.23-5.94.23-7.31-.45.92-8.45.92-9.82 10.94-1.6 12.54-.68z" class="B C E"/><path d="M206 379.61c-5.05 1.66-13.24.57-18.16.12-3.89-.35-10-.43-12.49-.45-.1 1.17 0 2.06.39 2.28 1.37.68 4.57.45 7.31.45s5.93.46 10.73.23l13-.68c.89-.18.47-1.36-.78-1.95z" class="B C D"/><path d="M199.51,314.66l-10.26,51.45,2.14,5.34a10.75,10.75,0,0,1-6.49,4.38,49.17,49.17,0,0,1-8.9.92s-1.14-5.71-.45-6.4.91-3.42.91-3.42l5.93-51.82Z" class="B C G"/><path d="M230.78 369.32s8 6.62 11.65 7.76 7.53 2.28 7.53 3.42-8.67 2.28-15.29 1.6-16.67-3.65-18.95-3.65-1.83-5.94-1.83-6.85 11.19-8.22 16.89-2.28z" class="B C E"/><path d="M250 380.5c0-.41-.51-.82-1.32-1.23a70.46 70.46 0 0 1-19.68-.14c-6.57-.94-12.07-2.2-14.88-2.9.24 1.23.71 2.22 1.64 2.22 2.28 0 12.33 3 18.95 3.65s15.29-.46 15.29-1.6z" class="B C D"/><path d="M191.07,291.6a104.15,104.15,0,0,1,20.54.46c11.64,1.37,37.65,3,38.1,5.94s-20.18,64.73-20.18,66.32,1.82,3.2,2.28,4.11a5.29,5.29,0,0,1,.46,2.06s-5.59,6-9.93,7.63-8,.1-8.9.1-.91-6.16-.22-9.13,1.82-10.5,2.05-11.18S228,313.29,228,313.29s-34,5.48-54.31,3.19-22.37-5.47-23.51-10.27,1.14-14.38,1.14-14.38Z" class="B C G"/><g class="F B C"><path d="M188.5 306.39a14.93 14.93 0 0 1-1.54 1.88m7.76-14.16a86.38 86.38 0 0 1-4.53 9.59m1.81-7.3a24.25 24.25 0 0 1-11.87 10" class="H"/><path d="M243.82 309l2.24-.93M228 313.29a117.48 117.48 0 0 0 13-3.29" class="D"/></g><path d="M254.39 237.48c.48-1.91 1.28-1.76.64-2.39-.88-.88-1.59.16-4.14 1.59l-5.09 3.18a2.56 2.56 0 0 1 .63-1.43 6.81 6.81 0 0 0 1-3.5c0-1-.8-.8-1.12.16s-3.18 2.7-3.34 3.5l-.73 3.94c-.91 1.37-.91 7.76-.91 7.76l-18.53 13.92-9.36 11s4.11 6.62 6.39 5.71 3.42-1.83 8.9-6.4c4.64-3.87 16.27-21.72 16.27-21.72a43.2 43.2 0 0 0 5.73-4.3 13.89 13.89 0 0 0 3.46-8.4 10.54 10.54 0 0 1 .2-2.62zm-85.74-21.12s1.76-6.6 9.24-5.28 13.2 7.48 14.52 9.68-24.2-.88-24.2-.88z" class="B C D"/><path d="M211.77,274s-1.74,1.88,0,4.84c1.19,2.05,3.29,3.62,7.31,2.93,3.76-.66,9.41-10,9.41-16.57s-4.84-7-6.6-5.72S211.77,274,211.77,274Z" class="B C D"/><path d="M171.89 215.59l-20.31 10c-2.51 1.55-4.11 21.45-4.11 24.88s2.51 37 3.19 42.68 22.6 9.59 29.91 7.53S195 293.43 195 291.6s-.69-17.34-.23-20.31 4.56-15.52 4.56-15.52l12.46 19.88s1.31 2.44 5.94.52c6.62-2.74 7.17-13.33 7.17-13.33s-7.3-12.78-9.36-19.17-3-11.19-3.88-12.33-21.46-10.73-25.11-13.24a16.23 16.23 0 0 0-14.66-2.51z" class="B C D"/><path d="M199.28 255.77l-5.93-8.68m4.97 7.44l-10.45-5.15" class="F H B C"/><g class="E B C"><path d="M167.35 320l9.12 64.82a1.09 1.09 0 0 0 1.33.91h0a1.11 1.11 0 0 0 .84-1.17l-6.43-65.63zm-26.2.51l-15.24 63.66a1.09 1.09 0 0 0 .91 1.33h0a1.08 1.08 0 0 0 1.2-.78l17.7-61.78z"/><path d="M168.83 319.72l-9.7 64.73a1.1 1.1 0 0 0 1 1.26h0a1.09 1.09 0 0 0 1.13-.88l12.31-63.08zm34.34.28l9.12 64.82a1.09 1.09 0 0 0 1.33.91h0a1.11 1.11 0 0 0 .84-1.17L208 318.91z"/></g><path d="M126.72 252.73l11.1 72.17h78.94s1.17-20.8-2.31-28.15-46.45 8.41-48 8c-1.15-.29.55-37.55 2.66-52.11a7.22 7.22 0 0 0-7.15-8.25h-28.1a7.22 7.22 0 0 0-7.14 8.34z" class="B C G"/><path d="M214.45 296.75c-3.48-7.35-46.45 8.41-48 8-1.15-.29.55-37.55 2.66-52.11a7 7 0 1 0-13.76.07l11.1 72.17h50.31s1.17-20.78-2.31-28.13z" class="B C E"/><path d="M254.39 237.48l-3.18 3.5m2.98-.92l-2.5 4.58" class="D F B C"/><g class="E"><path d="M40.36 276.54c1.66.72 5.71.63 5.72.63a86.05 86.05 0 0 0-.95-2.81c-.89-1.87-3.71-4.94-6-4.63a2.73 2.73 0 0 0-2.19 3.43c.38 1.58 2 2.76 3.42 3.38z"/><path d="M93.51 262.73c-2.3-.25-5 2.9-5.87 4.79-.07.16-.91 2.84-.87 2.84h0l-1.39 1.62-2.91 3.8a51.13 51.13 0 0 0-3 4.8 36.59 36.59 0 0 0-2.58 5.8.19.19 0 0 1 0 .07v-2.71c-.27-2.05-2-5.85-4.26-6.27a2.73 2.73 0 0 0-3.16 2.53c-.14 1.63 1 3.26 2.19 4.28 1.3 1.16 4.9 2.28 5.19 2.37a46.8 46.8 0 0 0-1.52 6.35l-.58 3.75v-1.18c-.26-2.05-2-5.85-4.25-6.27a2.74 2.74 0 0 0-3.16 2.57c-.13 1.63 1 3.26 2.2 4.29s4.21 2.06 5 2.31l-.19 1.45-.87 6.9-.4 2.36v-1c-.27-2.05-2-5.85-4.26-6.27a2.74 2.74 0 0 0-3.15 2.58c-.13 1.62 1 3.25 2.2 4.28a17.5 17.5 0 0 0 4.85 2.23l-.54 2.36-.43 1.54-.49 1.52-1.06 2.86-.74 1.87.34-2.48a10.66 10.66 0 0 0-1.43-5.17 2.43 2.43 0 0 0 0-.6 2.73 2.73 0 0 0-3.37-2.33c-2.24.59-3.65 4.51-3.76 6.57 0 .12.08 1.45.14 2.29l-.34-1.46-.77-3-.47-1.53-.54-1.56-1.48-3.61c.86-.21 3.92-1 5.15-1.93s2.52-2.48 2.51-4.11a2.73 2.73 0 0 0-3-2.8c-2.3.25-4.3 3.91-4.71 5.93 0 .13-.17 1.61-.23 2.43l-1-2.16-3.23-6.19-1-1.9c.31-.07 4-.91 5.34-2s2.52-2.47 2.51-4.11a2.74 2.74 0 0 0-3-2.8c-2.3.25-4.29 3.91-4.71 5.93 0 .16-.23 2.29-.25 2.84l-2.07-4.19a48.24 48.24 0 0 1-2.26-5.83c.14 0 4-.9 5.38-2 1.22-.94 2.52-2.48 2.5-4.11a2.73 2.73 0 0 0-3-2.8c-2.3.25-4.29 3.91-4.71 5.93 0 .16-.24 2.46-.25 2.88 0-.12-.08-.23-.12-.35a35.9 35.9 0 0 1-1.17-6.15l-.22-3.33c.73-.09 4-.53 5.43-1.36s2.78-2.19 3-3.81a2.74 2.74 0 0 0-2.63-3.11c-2.32 0-4.7 3.42-5.34 5.38 0 .11-.26 1.23-.42 2.05v-1.45l.22-4.76.23-2.22c.67-.46 3.34-2.34 4.16-3.69s1.46-3.22.86-4.74a2.73 2.73 0 0 0-3.76-1.54c-2.06 1.06-2.6 5.19-2.26 7.23 0 .17.81 2.87.84 2.85h0l-.26 2.12-.33 4.78a50 50 0 0 0 .14 5.66 35.75 35.75 0 0 0 1 6.26.19.19 0 0 1 0 .07l-1.53-2.24c-1.35-1.56-4.88-3.79-7-2.88a2.73 2.73 0 0 0-1.22 3.88c.79 1.43 2.67 2.14 4.2 2.36 1.72.25 5.34-.8 5.63-.88a48.78 48.78 0 0 0 2.19 6.08l1.59 3.44-.67-1c-1.35-1.56-4.88-3.79-7-2.88a2.73 2.73 0 0 0-1.03 3.95c.78 1.43 2.67 2.14 4.19 2.36s4.65-.6 5.47-.84l.65 1.31 3.08 6.24 1 2.19-.59-.84c-1.35-1.56-4.88-3.78-7-2.88a2.74 2.74 0 0 0-1.21 3.89c.79 1.43 2.67 2.14 4.19 2.36a17.68 17.68 0 0 0 5.33-.8l.85 2.26.49 1.53.43 1.54.7 3 .41 2-1.09-2.26c-1.1-1.75-4.25-4.48-6.49-3.91a2.74 2.74 0 0 0-1.78 3.66c.56 1.53 2.31 2.52 3.78 3 1.63.49 5.22 0 5.67 0l.59 3.11 1.21 8.33c0 .36.08.68.11 1h-7l2.54 49.57h11.86l2.54-49.57h-6.49l.15-.29 3.45-7.78 1.29-3.27c.44.09 4 .81 5.65.43 1.51-.34 3.33-1.19 4-2.67a2.73 2.73 0 0 0-1.51-3.78c-2.19-.74-5.53 1.75-6.76 3.41-.07.1-.74 1.25-1.15 2l.53-1.4 1-2.95.45-1.53c.17-.51.28-1.06.42-1.6l.75-3.83c.83.3 3.82 1.34 5.36 1.23s3.47-.67 4.36-2a2.74 2.74 0 0 0-.92-4c-2-1-5.74.9-7.2 2.35-.09.1-1 1.26-1.52 1.91l.34-2.36.73-6.94.22-2.13c.3.11 3.82 1.42 5.55 1.3 1.53-.11 3.46-.67 4.35-2a2.74 2.74 0 0 0-.92-4c-2-1.05-5.73.9-7.2 2.35-.11.11-1.45 1.79-1.77 2.23l.59-4.64a47.09 47.09 0 0 1 1.33-6.1c.14 0 3.8 1.43 5.58 1.31 1.53-.11 3.46-.68 4.35-2a2.73 2.73 0 0 0-.92-4c-2-1.06-5.73.89-7.2 2.35-.11.11-1.55 1.92-1.79 2.26l.09-.35a35.54 35.54 0 0 1 2.42-5.78l1.65-2.9c.66.33 3.68 1.8 5.28 1.86s3.52-.29 4.56-1.55a2.73 2.73 0 0 0-.48-4c-1.93-1.28-5.8.25-7.41 1.54-.09.07-.91.88-1.49 1.48l.78-1.22 2.82-3.86 1.41-1.71c.81 0 4.08-.12 5.51-.79s3-1.88 3.33-3.47a2.73 2.73 0 0 0-2.27-3.63zm-25.45 61.75l-3.58 7.62-.51 1h-.15c0-.35-.1-.74-.16-1.17l-1.41-8.39-.73-3.44a30.66 30.66 0 0 0 3.16-1.49 20 20 0 0 0 4.61 3l-1.23 2.87z"/><path d="M81.4 277.43l.76-2.87c.29-2.05-.36-6.16-2.45-7.17A2.74 2.74 0 0 0 76 269c-.56 1.53.15 3.41 1 4.71 1 1.56 4.4 3.72 4.4 3.72zM51.18 382.58h406.75v4.98H51.18z"/></g><defs ><path id="B" d="M437.24,381.57c2.92-10.68,12.43-46.53,18.89-82.84,7.7-43.35,14.44-103.06-16.38-128.11s-71.28,4.82-92.47-4.81-22.15-57.8-79-72.24-88.62,35.63-113.66,62.6-53,8.67-89.58,37.57c-36.2,28.58-5.5,158,21.27,187.83Z"/></defs></svg>