<svg xmlns="http://www.w3.org/2000/svg" xmlns:xlink="http://www.w3.org/1999/xlink" viewBox="0 0 500 500" xmlns:v="https://vecta.io/nano"><style><![CDATA[.B{fill:#25c}.C{fill:#fff}.D{fill:#263238}.E{fill:#455a64}.F{fill:#37474f}.G{opacity:.1}.H{opacity:.3}.I{fill:#fafafa}.J{fill:#ffa8a7}.K{opacity:.6}.L{opacity:.4}.M{fill:#ffbda7}.N{opacity:.85}.O{opacity:.5}.P{opacity:.65}.Q{opacity:.15}.R{opacity:.05}.S{fill:#f28f8f}.T{fill:#e0e0e0}.U{fill:#f0997a}.V{fill:#f0f0f0}]]></style><path d="M336.43 264.4L136.25 379.98 22.96 314.56l200.17-115.58 113.3 65.42z" class="B"/><path d="M336.43 264.4L136.25 379.98l-113.3-65.41.01-.01 200.17-115.58 113.3 65.42z" opacity=".2"/><path d="M136.25 388.7v-8.72L336.43 264.4v8.73L136.25 388.7z" class="B"/><path d="M136.25 388.7v-8.72L336.43 264.4v8.73L136.25 388.7z" class="G"/><path d="M136.25 379.98v8.72l-113.3-65.42v-8.72l113.3 65.42z" class="B"/><path d="M136.25 379.98v8.72l-113.3-65.42v-8.72l113.3 65.42z" class="H"/><g class="B"><path d="M478.61 346.49L278.43 462.06l-117.09-67.59 200.17-115.58 117.1 67.6z"/><path d="M278.43 462.06v8.73l-117.09-67.6v-8.72l117.09 67.59z"/></g><path d="M278.43 462.06v8.73l-117.09-67.6v-8.72l117.09 67.59z" class="Q"/><path d="M478.61 346.49v8.72L278.43 470.79v-8.73l200.18-115.57z" class="B"/><path d="M478.61 346.49v8.72L278.43 470.79v-8.73l200.18-115.57zm-58.36 5.65q-11.6-12.42-33.26-19a8.8 8.8 0 0 0-3.61-.19 102.25 102.25 0 0 0-42 17.75 1.5 1.5 0 0 0-.13 2.39l.58.51c-20.09-5.47-44.79-3.42-61.4 6.17-21.14 12.2-21.14 32 0 44.2s55.41 12.2 76.55 0c14.9-8.6 19.29-21 13.19-31.79a129.55 129.55 0 0 0 13.3 5.21 5.16 5.16 0 0 0 3.44-.26c12.22-6.17 24.6-14.34 33.27-22.31a1.9 1.9 0 0 0 .07-2.68zm7.8-13.14c-6 3.46-6 9.07 0 12.53s15.7 3.45 21.69 0 6-9.07 0-12.53-15.74-3.46-21.69 0zm-137.48 98.22c1.64-2.18 2.65-4.78 2.15-7.27a32.32 32.32 0 0 1-16.93 3.15c-5.6-.33-11.09-2.28-16.21-4.63a6.37 6.37 0 0 1-2.74-2c-.47-.7-.65-1.56-1.15-2.24a11.91 11.91 0 0 0-1.73-1.59 2.45 2.45 0 0 1-1-2.05q-5.19 1-10.31 2.33a7.56 7.56 0 0 0-4 2.53c-.89.95-2.55 2.37-3.86 1.29a2.17 2.17 0 0 1-3-.64 5.23 5.23 0 0 0-.63-1.11c-.22-.23-.54-.37-.66-.66-.19-.46.2-.93.57-1.25A58.4 58.4 0 0 1 242 416c-2.84-1.2-4.55-5-4.27-8a10.94 10.94 0 0 1 5.19-7.83 21.83 21.83 0 0 1 9.18-3 38.67 38.67 0 0 1 17.74 1.83 30.66 30.66 0 0 1 14.38 10.41c1.33 1.8 2.44 3.74 3.67 5.61 1.73 2.61 3.9 4.84 5.73 7.36 2.95 4.06 4.81 9 2.41 13.72a11 11 0 0 1-2.78 3.47 12.51 12.51 0 0 1-3.35 2 10.74 10.74 0 0 1-3.69 1c-.46 0-2.43.17-2.25-.71.06-.28.38-.41.65-.5a12.81 12.81 0 0 0 3.31-1.65 13.5 13.5 0 0 0 2.65-2.49zM44.16 310.32c-6 3.46-6 9.06 0 12.52s15.7 3.46 21.69 0 6-9.06 0-12.52-15.7-3.46-21.69 0zm193.55-58.89c.39.43 1 .76 1.08 1.34a1.34 1.34 0 0 1-.49 1c-1 1-2.57 1.1-3.9 1.56s-2.7 1.72-2.28 3.07a2.32 2.32 0 0 0 1.56 1.39 5.44 5.44 0 0 0 4.07-.64c1.25-.64 2.39-1.5 3.7-2 2.75-1.13 6.07-.76 8.49-2.49.56-.4 1.14-.93 1.82-.85a2.29 2.29 0 0 1 .89.36l4.66 2.73a4 4 0 0 1-2.49 3.5 10.93 10.93 0 0 1-4.48.71 13.34 13.34 0 0 0-4.5.55 2.13 2.13 0 0 0-1.52 1.44c-.22 1.19.8 1.44 1.68 1.83 1.27.56 1.54 2 2.87 2.58a9.26 9.26 0 0 0 3.63.54c3.49 0 7.12.06 10.3-1.39 1.83-.84 3.72-2.18 5.67-1.65a3.91 3.91 0 0 1 2.37 4.84 5.94 5.94 0 0 1-4.34 3.76 12.89 12.89 0 0 1-5.95-.21 59.66 59.66 0 0 0-5.87-1.28c-1.24-.15-2.88.14-3.1 1.37s1.21 2.05 2.39 2.47a40.47 40.47 0 0 0 8.6 2.42 14 14 0 0 0 8.68-1.37 8.47 8.47 0 0 0 4.47-7.26c-.07-3-2-5.6-2.92-8.48-1.06-3.49-.49-7.37-1.89-10.73-1.67-4-5.81-6.44-10-7.61a28.14 28.14 0 0 0-17.56.94c-2.52 1-4.64 1.89-5.87 4.47a2.66 2.66 0 0 0 .23 3.09zm-19.25 20.85l-62.68-36a4.22 4.22 0 0 0-3.91.06L50.61 299.21a1.24 1.24 0 0 0 0 2.32l58.84 33.73a4.37 4.37 0 0 0 3.94 0l21.76-12.58c-3.26 6.57-.41 13.95 8.56 19.13 13.16 7.6 34.5 7.6 47.66 0s13.16-19.92 0-27.51c-9-5.19-21.78-6.83-33.18-4.94l60.25-34.81a1.2 1.2 0 0 0 .02-2.27z" class="G"/><path d="M211.41 274.59l-4.91-2.84 4.91-1.42v4.26z" class="B"/><path d="M211.41 274.59l-4.91-2.84 4.91-1.42v4.26z" class="C K"/><path d="M211.41 274.59l-4.91-2.84 4.91-1.42v4.26z" class="R"/><path d="M211.41 274.59l2.46-1.42v-4.26l-2.46 1.42v4.26z" class="B"/><path d="M211.41 274.59l2.46-1.42v-4.26l-2.46 1.42v4.26z" opacity=".75" class="C"/><path d="M186.8 284.54v4.52l-35.55-20.51v-4.52l35.55 20.51z" class="B"/><path d="M186.8 284.54v4.52l-35.55-20.51v-4.52l35.55 20.51z" class="C K"/><path d="M186.8 284.54v4.52l-35.55-20.51v-4.52l35.55 20.51z" class="G"/><path d="M186.8 289.06l2.46-1.42v-4.52l-2.46 1.42v4.52z" class="B"/><path d="M186.8 289.06l2.46-1.42v-4.52l-2.46 1.42v4.52z" opacity=".75" class="C"/><path d="M148.79 228.57l35.55 20.51v36.88l-35.55-20.52v-36.87z" class="B"/><path d="M148.79 228.57l35.55 20.51v36.88l-35.55-20.52v-36.87z" class="C K"/><path d="M184.34 249.08l31.98-18.46v36.87l-31.98 18.47v-36.88z" class="B"/><path d="M184.34 249.08l31.98-18.46v36.87l-31.98 18.47v-36.88z" opacity=".75" class="C"/><path d="M216.32 230.62l-35.55-20.52-31.98 18.47 35.55 20.51 31.98-18.46z" class="B"/><path d="M216.32 230.62l-35.55-20.52-31.98 18.47 35.55 20.51 31.98-18.46z" class="C N"/><path d="M186.8 261.85l27.07-15.63v19.86L186.8 281.7v-19.85z" class="B"/><path d="M186.8 261.85l27.07-15.63v19.86L186.8 281.7v-19.85z" opacity=".7" class="C"/><path d="M213.87 266.08l-17.08-10-9.99 5.77v19.85l27.07-15.62z" class="G"/><path d="M213.87 266.08l-17.08-10 17.08-9.86v19.86z" class="R"/><path d="M186.8 250.5l27.07-15.63v8.51l-27.07 15.63v-8.51z" class="B"/><path d="M186.8 250.5l27.07-15.63v8.51l-27.07 15.63v-8.51z" class="C N"/><path d="M195.19,247.45c0,.39,1.17,0,2.62-.8l4.58-2.65c1.45-.84,2.62-1.83,2.62-2.23v-.7l-9.82,5.67Z" class="E"/><use xlink:href="#B" class="B"/><use xlink:href="#B" class="R"/><use xlink:href="#C" class="B"/><use xlink:href="#C" class="R"/><path d="M183.67 221.75a2 2 0 0 0 0-.48 7.12 7.12 0 0 0-2.89-4.3h-6a7.12 7.12 0 0 0-2.89 4.3 2 2 0 0 0 0 .48v.08a3.06 3.06 0 0 0 1.73 2.3 9.32 9.32 0 0 0 8.42 0 3 3 0 0 0 1.73-2.3.54.54 0 0 0-.1-.08z" class="F"/><path d="M174.86 216.87c-1.58.92-1.58 2.4 0 3.31a6.33 6.33 0 0 0 5.72 0c1.58-.91 1.58-2.39 0-3.31a6.33 6.33 0 0 0-5.72 0z" class="E"/><path d="M178.55,196.75H176.9v21.14h0a.38.38,0,0,0,.23.38,1.25,1.25,0,0,0,1.16,0,.38.38,0,0,0,.24-.38h0Z" class="D"/><g class="B"><path d="M189.85 193.58h0L184.14 179H171.3l-5.71 14.57h0c-.81 2.28.31 4.74 3.37 6.51 4.84 2.8 12.69 2.8 17.53 0 3.06-1.76 4.18-4.22 3.36-6.5z"/><use xlink:href="#D"/></g><use xlink:href="#D" class="C H"/><use xlink:href="#E" class="B"/><use xlink:href="#E" class="Q"/><use xlink:href="#F" class="B"/><use xlink:href="#F" class="O"/><use xlink:href="#G" class="B"/><use xlink:href="#G" class="L"/><path d="M184.26 227.4c-2.28 1-2.26 2.63 0 3.6a11.94 11.94 0 0 0 8.29-.08c2.28-1 2.26-2.63 0-3.6a11.94 11.94 0 0 0-8.29.08z" class="B"/><path d="M185.07 228c-1.84.67-1.83 1.72 0 2.35a11.72 11.72 0 0 0 6.69-.07c1.84-.67 1.83-1.72 0-2.35a11.69 11.69 0 0 0-6.69.07z" class="L"/><path d="M185.08 229.44a3.56 3.56 0 0 0-.92.48 3.66 3.66 0 0 0 .93.45 11.72 11.72 0 0 0 6.69-.07 3.4 3.4 0 0 0 .92-.47 3.22 3.22 0 0 0-.93-.46 11.72 11.72 0 0 0-6.69.07z" class="D"/><path d="M109.83 320H102l1.26 7.64h0a1.4 1.4 0 0 0 .76.94 4.19 4.19 0 0 0 3.78 0 1.4 1.4 0 0 0 .76-.94h0zm-35.14-20.43h-7.82l1.25 7.63h0a1.38 1.38 0 0 0 .76.94 4.13 4.13 0 0 0 3.78 0 1.38 1.38 0 0 0 .76-.94h0zm100.95-9.44h-7.83l1.25 7.63h0a1.38 1.38 0 0 0 .76.94 4.13 4.13 0 0 0 3.78 0 1.35 1.35 0 0 0 .76-.94h0zM135.83 267H128l1.25 7.63h0a1.44 1.44 0 0 0 .76.95 4.22 4.22 0 0 0 3.79 0 1.44 1.44 0 0 0 .76-.95h0z" class="I"/><path d="M181.88 250v36.45a8.45 8.45 0 0 1-3.79 6.58l-3.1 1.78h-.05a8.49 8.49 0 0 1-4.74.81l-46.45 24.58a8.5 8.5 0 0 1-3.75 6.31h0l-3.08 1.78-.29.15-.16.08h0a8.68 8.68 0 0 1-5.89.27 4.73 4.73 0 0 1-.66-.25h-.11l-.44-.23-44.7-25.74a8.39 8.39 0 0 1-3.8-6.57l-.06-46.15v-17.51a8.42 8.42 0 0 1 3.8-6.57l50-28.81a7.87 7.87 0 0 1 7.32.13l3.09 1.78a10.09 10.09 0 0 1 4.38 6.53l3 19.54 2.75-1.59a8.24 8.24 0 0 1 8.26 0l34.8 20.09a8.42 8.42 0 0 1 3.67 6.56z" class="F"/><path d="M124.92 198.87l-3.09-1.78a7.84 7.84 0 0 0-7.32-.13l-50 28.81-.39.25a8.64 8.64 0 0 0-3.36 5.68c.28-1.93 1.86-2.63 3.75-1.55l3.09 1.79a8.39 8.39 0 0 0 7.59 0l49.72-28.69c2.09-1.25 2.09-3.17.01-4.38z" class="E"/><path d="M181.88 250v36.45a8.45 8.45 0 0 1-3.79 6.58l-3.1 1.78h-.05a8.15 8.15 0 0 1-4.44.84 7.51 7.51 0 0 1-3.1-.87l-35.12-20.29a8.4 8.4 0 0 1-3.8-6.57v-36.41a8.38 8.38 0 0 1 3.8-6.57l2.75-1.59a8.24 8.24 0 0 1 8.26 0l34.8 20.09a8.42 8.42 0 0 1 3.79 6.56z" class="D"/><path d="M135 223.35l-2.76 1.59c-2.08 1.2-2.08 3.17 0 4.38l35.16 20.28a8.42 8.42 0 0 1 3.8 6.58v36.45c0 2.41 1.71 3.39 3.79 2.19l3.09-1.78a8.44 8.44 0 0 0 3.8-6.58V250a8.4 8.4 0 0 0-3.8-6.57l-34.79-20.09a8.24 8.24 0 0 0-8.29.01z" class="E"/><path d="M171.2 256.18v36.45c0 2.41 1.71 3.39 3.79 2.19l3.09-1.78a8.44 8.44 0 0 0 3.8-6.58V250a7.74 7.74 0 0 0-1.12-3.74l-10.68 6.17a7.74 7.74 0 0 1 1.12 3.75z" class="F"/><path d="M169.62 295.69a8.85 8.85 0 0 1-1.39 2.09 16.69 16.69 0 0 1-3.57 2.5l-36.32 21a4.22 4.22 0 0 1-3.79 0l-12.34-7.13-24.69-14.3a7.12 7.12 0 0 1 0-12.6l14-8.09 10.69-6.16 11.6-6.69a8.45 8.45 0 0 1 7.59 0l35.13 20.29a8.15 8.15 0 0 1 3.79 6.3 6.68 6.68 0 0 1-.7 2.79z" class="D"/><path d="M128.34 313l40.08-23.13c1.05-.6 1.9-.11 1.9 1.1v3.84a4.21 4.21 0 0 1-1.9 3.29l-40.08 23.12c-1 .6-1.9.11-1.9-1.1v-3.84a4.19 4.19 0 0 1 1.9-3.28zm-4.53-65.48l-36.29 20.93a8.38 8.38 0 0 0-3.8 6.57v7.68a8.38 8.38 0 0 0 3.8 6.57l35.13 20.28a8.39 8.39 0 0 0 7.59 0l36.29-20.93a8.39 8.39 0 0 0 3.79-6.57v-7.68a8.39 8.39 0 0 0-3.79-6.57l-35.13-20.28a8.39 8.39 0 0 0-7.59 0z" class="F"/><path d="M126.45 294v16.45a7.71 7.71 0 0 1-3.8-.91l-35.13-20.27a8.38 8.38 0 0 1-3.8-6.57V275a8.48 8.48 0 0 1 3.41-6.32c-1.7 1.21-1.57 3 .39 4.13l35.13 20.28a7.71 7.71 0 0 0 3.8.91z" class="D"/><path d="M130.24 293.11l36.29-20.93c2.09-1.21 2.09-3.17 0-4.38l-35.13-20.28a8.39 8.39 0 0 0-7.59 0l-36.29 20.93c-2.1 1.21-2.1 3.17 0 4.38l35.13 20.28a8.39 8.39 0 0 0 7.59 0z" class="E"/><path d="M145.4,301.08c-.58.61-1.25,1.31-1.17,2.08a7.7,7.7,0,0,0,2.07,4.34c1.6,1.74,2.65,5.05,2.95,7.29s.5,8,3.35,10.23,9.76,3.39,9.76-.79S154.11,304,154.11,304Z" class="D"/><path d="M149.22,303.77a60.12,60.12,0,0,1,2.79,9c.71,3.36,1.7,5.72,3.41,6.62s4.26.74,3.3-1.54S154.11,304,154.11,304Z" class="S"/><use xlink:href="#H" class="B"/><use xlink:href="#H" class="H"/><path d="M152.24 277.18c-1.91-4.44-6.08-7.4-10-9.81-3.1-1.92-10.83-6.42-13.87-8.18a14 14 0 0 0 1-4.77s-.94 2.18-2.07 4.16h0l-.81 1.33 19.92 14.86 13.63 24.43s-5.89-17.58-7.8-22.02z" class="G"/><path d="M161.25 324.54c-.56.37-.48 1.76-.42 2.77s-.68 2.34.79 3.91 4 1.7 6 3.84 5.1 6.07 10.62 6.36 9.32-2.13 10.06-3.88-.39-3.12-4.12-4.53l-5.08-1.94z" class="D"/><path d="M165.25 312.64s3.73 6.73 5.82 9.76a38.09 38.09 0 0 0 8.27 8.2c.7.54 2.24 1.48 2.81 1.92a1 1 0 0 1 .21 1.59c-.92 1.34-5.75 2.61-8.92 1.13s-6.65-4.84-8.63-6.15l-2.6-1.76a2.25 2.25 0 0 1-1-2v-.8c.05-1.65-3.37-7.7-3.37-7.7z" class="J"/><use xlink:href="#I" class="B"/><use xlink:href="#I" class="H"/><path d="M142.87 244.06c-2.94-.7-6.11-2.43-9.26-3.85l-8.6-4h0c-.38-3.51-1.74-15.37-3.49-21.44-1.23-4.29-4.47-6.74-8.83-5.6 0 0 3 27.08 4.9 32.32.29.83 1 2.34 4.06 3.33 5.79 1.85 12.8 3.76 14.38 4.29" class="J"/><use xlink:href="#J" class="B"/><use xlink:href="#J" opacity=".7" class="C"/><g class="D"><path d="M107.58 204.87a6 6 0 0 1-.88.53c-1.26.67-6.49 2.65-7.61 1.82-4.23-3.19-9.41-7.2-9.61-14.66a14.85 14.85 0 0 1 1.41-7.8 16.2 16.2 0 0 1 2.44-3.43 10.81 10.81 0 0 1 3.58-2.5 30.74 30.74 0 0 1 11.58-2.83 20.14 20.14 0 0 1 7.64 1 7.54 7.54 0 0 1 4.59 4.43c.81 2.18.59 4.6-1.21 6.09 1.89 1.17 2.6 4.58.52 6.81-1.23 1.31-5 2.8-5 2.8-2.15 2-3.17 3.94-5.32 5.92a19.74 19.74 0 0 1-2.13 1.82z"/><path d="M99.48 174c2.39 3.35 0 5.73-3.36 8.12s-6.39 3.88-8.78.53-1.2-7.17 2.15-9.56 7.6-2.49 9.99.91z"/><path d="M91.39 184.67L88 187.28a2.07 2.07 0 0 1 .3-3 2.24 2.24 0 0 1 3.09.39z"/></g><path d="M114.89 183.18c1.74 1 4 5.21 4 14.23 0 7.65-2.39 9.6-3.62 10.18s-3.64.31-6 0v3.16s4.21 4.6 4.06 6.71-5.38 3.2-8.45 1.23a24.71 24.71 0 0 1-5.73-5.85L99 202.23s-1.34 1.37-3.72-.6c-2-1.63-2.69-4.44-1.24-6a3.36 3.36 0 0 1 5.36.91 18.36 18.36 0 0 0 8.6-2.82 13.93 13.93 0 0 0 6.89-10.54z" class="J"/><path d="M110.31,195.73a1,1,0,0,1-.88,1.06,1,1,0,1,1,.88-1.06Z" class="D"/><path d="M110.74 202.2l2.25.65a1.15 1.15 0 0 1-1.43.84 1.23 1.23 0 0 1-.82-1.49z" class="S"/><path d="M118.11 192.56l-2-1.29a1.13 1.13 0 0 1 1.6-.38 1.24 1.24 0 0 1 .4 1.67zm-.39 2.27a1 1 0 0 1-.88 1.07 1 1 0 1 1 .88-1.07z" class="D"/><path d="M113.37 193.92l.11 6.26 3.02-1.02-3.13-5.24zm-4.08 13.66c-2.46-.26-7.56-1.57-8.4-3.55a5.19 5.19 0 0 0 1.84 2.5c1.55 1.26 6.6 2.58 6.6 2.58z" class="S"/><path d="M109.06,267v.68a1.93,1.93,0,0,0,1,1.67l18.37,10.58a2,2,0,0,0,1.93,0L164,260.47a1.93,1.93,0,0,0,1-1.67v-.47L129.36,278.9Z" fill="#ebebeb"/><path d="M165,258.33,145,246.8a1.13,1.13,0,0,0-1.15,0l-34.66,20a.26.26,0,0,0,0,.45l20.17,11.64Z" class="I"/><path d="M129.17 277.2l-10.78-6.21 31.52-18.2 10.83 6.19-31.57 18.22zm-5.3-17.29l.2.12 5.28 3.05 9.4-5.43.19-.11-5.48-3.16-9.59 5.53z" class="T"/><path d="M124.07 260.03l5.28 3.05 9.4-5.43-5.29-3.05-9.39 5.43z" fill="#e6e6e6"/><path d="M129.36,278.9v1.28a1.94,1.94,0,0,0,1-.25L164,260.47a1.93,1.93,0,0,0,1-1.67v-.47Z" class="G"/><path d="M136 249.17a20.6 20.6 0 0 1 4.71 2.09 13.57 13.57 0 0 0 4.22 1.25 30.48 30.48 0 0 0 3.51 1.79 9.21 9.21 0 0 0 6.11.49c2.37-.75.71-2.83-.33-3.7l-5.55-4.86c-.75-.69-3.91-1.71-5.83-2.17" class="J"/><path d="M129.9,279.18a2.25,2.25,0,0,0,2-.15l33.56-19.37a2.29,2.29,0,0,0,1.11-1.59l3.67-21.91a2.31,2.31,0,0,0,0-.37,2.24,2.24,0,0,0-.68-1.62L134.69,254.3a1.65,1.65,0,0,0-.82,1.18Z" fill="#ebebeb"/><path d="M129.36,278.9l.22.13a2.3,2.3,0,0,0,.32.15l4-23.7a1.65,1.65,0,0,1,.82-1.18l34.86-20.13a2,2,0,0,0-.46-.36L134.15,254a1.73,1.73,0,0,0-.82,1.18Z" class="I"/><path d="M148.79 259a7.44 7.44 0 0 1 3.39-4.35c1.62-.93 2.73-.5 2.49 1a7.4 7.4 0 0 1-3.38 4.35c-1.63.86-2.74.43-2.5-1z" class="E"/><path d="M110.8 263.08c-2.31-.77-16.23-4.59-21-6.58-3.25-1.36-3.4-3-3.48-5.8-.08-2.61-1.52-22.8-.12-28 1.23-4.62 3.25-7 8.19-8.17 3.07 2.42 4.94 13.4 1.75 19.59v14.38l12.25 5.67c3.14 1.41 6.32 3.15 9.26 3.85 1.92.46 5.07 1.48 5.82 2.17s3.9 3.46 5.56 4.86c1 .87 2.7 2.95.33 3.7a9.24 9.24 0 0 1-6.12-.49 30.94 30.94 0 0 1-3.5-1.79 13.43 13.43 0 0 1-4.23-1.26 20.64 20.64 0 0 0-4.71-2.13z" class="J"/><path d="M113.08 326.16v-36.45a8.42 8.42 0 0 0-3.79-6.57l-35.18-20.31a2.5 2.5 0 0 1 0-4.33l.89-.5-3-19.54a10.06 10.06 0 0 0-4.38-6.53l-3.09-1.79c-2.08-1.2-3.79-.22-3.79 2.19v17.55l.05 46.12a8.42 8.42 0 0 0 3.79 6.57l44.71 25.74c2.08 1.25 3.79.26 3.79-2.15z" class="D"/><path d="M123.76 283.54V320a1.93 1.93 0 0 1 0 .24 8.5 8.5 0 0 1-3.75 6.31h0l-3.08 1.78-.29.15-.16.08h0l-.31.11a8.8 8.8 0 0 1-5.58.16 4.73 4.73 0 0 1-.66-.25c1.82.76 3.23-.27 3.24-2.45h0v-36.42a8.42 8.42 0 0 0-3.79-6.57l-6.89-4-28.38-16.31a2.5 2.5 0 0 1 0-4.33l3.14-1.81a8.45 8.45 0 0 1 7.59 0L113.08 273l6.88 4a8.39 8.39 0 0 1 3.8 6.54z" class="E"/><path d="M113.08 289.71v36.45h0c0 2.18-1.42 3.21-3.24 2.45a4.73 4.73 0 0 0 .66.25 8.8 8.8 0 0 0 5.58-.16l.31-.11h0l.16-.08.29-.15 3.08-1.78h0a8.5 8.5 0 0 0 3.75-6.31 1.93 1.93 0 0 0 0-.24v-36.49a7.86 7.86 0 0 0-1.11-3.74L112 286a7.72 7.72 0 0 1 1.08 3.71z" class="F"/><use xlink:href="#K" class="B"/><use xlink:href="#K" class="C O"/><use xlink:href="#L" class="B"/><use xlink:href="#L" opacity=".7" class="C"/><ellipse cx="55.01" cy="290.99" rx="10.93" ry="6.31" class="B"/><use xlink:href="#M" class="E"/><use xlink:href="#N" class="B"/><use xlink:href="#N" opacity=".2"/><path d="M55.2 292.83a.28.28 0 0 1-.15-.27C55.71 283 47.26 266.7 43 263a.29.29 0 0 1 .37-.44c4.34 3.73 12.93 20.32 12.27 30a.29.29 0 0 1-.31.27.34.34 0 0 1-.13 0z" class="C"/><path d="M54.47 294.61a8.42 8.42 0 0 0 13.13-2.06 1.78 1.78 0 0 0 .29-1.13 1.85 1.85 0 0 0-.69-.95 11.66 11.66 0 0 0-5.44-2.53 22.52 22.52 0 0 0 3.47-.16 20.9 20.9 0 0 1 4.67.45s2.57-.94 2.08-5.24c0 0-2.42-1.76-8-1.07a17.92 17.92 0 0 1 7.69-2.55c.38 0-.14-5.59-.61-8.09s-1.39-2.1-3.39-1.89-8.3 2.29-9.05 3.73 0 5.07 0 5.07a7.25 7.25 0 0 1-2.24-3.34 7 7 0 0 0-3.82 1.59c-1.76 1.49-1.25 2.44-.68 3.92a16.79 16.79 0 0 0 2.31 4.18 5.58 5.58 0 0 0-.88-.65l-1.48-1.1a9.18 9.18 0 0 1-2.14-2.88 16.47 16.47 0 0 0-2.24 5.56 8.47 8.47 0 0 0 .94 5.83 6.51 6.51 0 0 0 5.91 3.15 1.29 1.29 0 0 0 .17.16z" class="B"/><use xlink:href="#O" class="C"/><path d="M27.59 183.23l3.01 1.73 75.18-43.4-3.01-1.74-75.18 43.41z" class="E"/><path d="M102.77 139.82L30.6 181.49v-54.07l72.17-41.67v54.07z" class="B"/><path d="M102.77 139.82L30.6 181.49v-54.07l72.17-41.67v54.07z" class="C N"/><path d="M68.19 103.98v57.55l3.01-1.74v-57.54l-3.01 1.73z" class="F"/><path d="M66.69 103.11l1.5.87v57.55l-1.5-.87v-57.55z" class="D"/><path d="M68.19 103.98l3.01-1.73-1.51-.87-3 1.73 1.5.87z" class="I"/><path d="M108.78,78.81,27.59,125.68v64.49l81.19-46.87Zm-3,62.75L30.6,185V127.42L105.78,84Z" class="F"/><path d="M105.78 141.56l-3.01-1.74V85.75l3.01-1.74v57.55z" class="D"/><path d="M108.78 78.81l-3-1.74-81.19 46.87 3 1.74 81.19-46.87z" class="E"/><path d="M24.59 123.94l3 1.74v64.49l-3-1.73v-64.5zm43.6-18.22l3-1.74v1.74l-3 1.73v-1.73z" class="D"/><path d="M68.19 107.45l-1.5-.87 1.5-.86v1.73z"/><use xlink:href="#P" class="B"/><g class="C"><use xlink:href="#P" class="P"/><path d="M241.59 238.63c1.3.57.43 1.93 0 3.62-.6 2.34-.86 5.83 2.46 7.75s5.66 1.35 8.06 1 2.94.63 3.44 1.71.88 3.2 3.68 3.44 5.87-4 5.87-4 .38-6.86-5.21-10.79-12.75-6.89-18.3-2.73z"/></g><use xlink:href="#Q" class="B"/><use xlink:href="#Q" class="C P"/><use xlink:href="#R" class="B"/><use xlink:href="#R" class="C P"/><path d="M237.54 224.39c-.81-.54-1.23-.67-1.3-.52-.08.77 1.3 3.07 1.3 4.95l1.84-1.34a4.48 4.48 0 0 0-1.84-3.09z" class="J"/><use xlink:href="#S" class="B"/><use xlink:href="#S" class="C P"/><use xlink:href="#T" class="B"/><use xlink:href="#T" opacity=".8" class="C"/><path d="M250.42,224.84c-.35-.4-1.9-.79-5.81,1.47l.19,2Z" class="B"/><path d="M250.42,224.84c-.35-.4-1.9-.79-5.81,1.47l.19,2Z" class="C P"/><path d="M244.8 228.28s3.72-3.59 5.27-3.57-.46 5.33-.46 5.33a3.29 3.29 0 0 0-1.61-1.44 9.3 9.3 0 0 0-3.2-.32z" class="J"/><path d="M238.71 234.83c-1.28-.09-1.12.31-.94.62a1.69 1.69 0 0 0 .93.69 2.1 2.1 0 0 0 1.43-.62c.22-.33-.34-.61-1.42-.69z" class="S"/><g class="E"><path d="M242.43 233.19s.26-1 1-1.08a1.11 1.11 0 0 1 1.08.54 1.15 1.15 0 0 1-.81.92 1.23 1.23 0 0 1-1.27-.38zm-3.9-.36a1 1 0 0 0-.47-1.05.67.67 0 0 0-.38-.08.7.7 0 0 0-.52 1 .71.71 0 0 0 .28.26.89.89 0 0 0 1.09-.13zm6.34 2.51h-.05a5.31 5.31 0 0 0-3.5 0 .13.13 0 0 1-.17-.07.12.12 0 0 1 .07-.17 5.42 5.42 0 0 1 3.69 0 .13.13 0 0 1 .08.17.14.14 0 0 1-.12.07zm-.25 1.66a.15.15 0 0 1-.09 0 4.18 4.18 0 0 0-3.36-1.09.15.15 0 0 1-.15-.12.13.13 0 0 1 .12-.15 4.41 4.41 0 0 1 3.58 1.18.13.13 0 0 1 0 .19.12.12 0 0 1-.1-.01zm-7.45-1.95a.18.18 0 0 1-.1 0h0a4.2 4.2 0 0 0-3-.82.11.11 0 0 1-.14-.11.13.13 0 0 1 .11-.15 4.45 4.45 0 0 1 3.19.84h0v.05a.14.14 0 0 1-.05.16z"/><path d="M234.12,235.53a.14.14,0,0,1-.12-.08.12.12,0,0,1,.06-.17,3.53,3.53,0,0,1,3.07,0,.13.13,0,1,1-.12.24,3.32,3.32,0,0,0-2.83,0Z"/></g><use xlink:href="#U" class="B"/><use xlink:href="#U" class="C O"/><use xlink:href="#V" class="B"/><use xlink:href="#V" opacity=".7" class="C"/><ellipse cx="438.9" cy="320.74" rx="10.93" ry="6.31" class="B"/><use xlink:href="#M" x="383.89" y="29.75" class="E"/><use xlink:href="#W" class="B"/><use xlink:href="#W" opacity=".2"/><path d="M439.09 322.58a.28.28 0 0 1-.15-.27c.66-9.54-7.79-25.86-12.06-29.53a.29.29 0 0 1 .37-.44c4.34 3.73 12.93 20.32 12.27 30a.29.29 0 0 1-.31.27.42.42 0 0 1-.12-.03z" class="C"/><path d="M438.36 324.36a8.42 8.42 0 0 0 13.13-2.06 1.78 1.78 0 0 0 .29-1.13 1.85 1.85 0 0 0-.69-.95 11.66 11.66 0 0 0-5.44-2.53 22.52 22.52 0 0 0 3.47-.16 20.9 20.9 0 0 1 4.67.45s2.57-.94 2.08-5.24c0 0-2.42-1.76-8-1.07a17.92 17.92 0 0 1 7.69-2.55c.38 0-.14-5.59-.61-8.09s-1.39-2.1-3.39-1.89-8.3 2.29-9.05 3.73 0 5.07 0 5.07a7.25 7.25 0 0 1-2.24-3.34 7 7 0 0 0-3.82 1.59c-1.76 1.49-1.25 2.44-.68 3.92a16.79 16.79 0 0 0 2.31 4.18 5.58 5.58 0 0 0-.88-.65l-1.48-1.1a9.18 9.18 0 0 1-2.14-2.88 16.47 16.47 0 0 0-2.24 5.56 8.48 8.48 0 0 0 .94 5.83 6.51 6.51 0 0 0 5.91 3.15 1.29 1.29 0 0 0 .17.16z" class="B"/><use xlink:href="#O" x="383.89" y="29.75" class="C"/><path d="M475.6 207.09l-3.01 1.74-75.18-43.4 3.01-1.74 75.18 43.4z" class="E"/><path d="M400.42 163.69l72.17 41.67v-54.08l-72.17-41.66v54.07z" class="B"/><path d="M400.42 163.69l72.17 41.67v-54.08l-72.17-41.66v54.07z" class="C N"/><path d="M435 127.85v57.55l-3.01-1.74v-57.55l3.01 1.74z" class="F"/><path d="M436.5 126.98l-1.5.87v57.55l1.5-.87v-57.55z" class="D"/><path d="M435 127.85l-3.01-1.74 1.51-.87 3 1.74-1.5.87z" class="I"/><path d="M394.41,167.16,475.59,214V149.55l-81.19-46.88Zm3-59.28,75.18,43.4v57.55l-75.18-43.4Z" class="F"/><path d="M397.41 165.43l3.01-1.74v-54.07l-3.01-1.74v57.55z" class="D"/><path d="M394.41 102.67l3-1.73 81.19 46.87-3 1.74-81.19-46.88z" class="E"/><path d="M478.6 147.81l-3 1.74v64.49l3-1.74v-64.49zM435 129.58l-3-1.73v1.74l3 1.73v-1.74z" class="D"/><path d="M435 131.32l1.5-.87-1.5-.87v1.74z"/><path d="M377.21 291l2.72.08 2.25-30.12-2.72-.08-2.25 30.12zm23.17 12.71l2.71.08 2.25-30.12-2.71-.08-2.25 30.12zm-.91 2.59H404l6.53 46.6h0a.52.52 0 0 1-.33.49 1.72 1.72 0 0 1-1.59 0 .6.6 0 0 1-.32-.38h0zm-26.93-15.55H377l6.52 46.6h0a.55.55 0 0 1-.33.49 1.8 1.8 0 0 1-1.6 0 .61.61 0 0 1-.32-.39h0zm-34.67 61.32l7.75-45.77h4.49l-10 45.87h0a.61.61 0 0 1-.32.39 1.8 1.8 0 0 1-1.6 0 .57.57 0 0 1-.33-.49zM367 368.91l6.52-46.61h4.49l-8.72 46.7h0a.65.65 0 0 1-.32.39 1.8 1.8 0 0 1-1.6 0 .55.55 0 0 1-.33-.49z" class="E"/><path d="M345.62 306.3h4.49l-1.83 8.38-3-2.6a3.08 3.08 0 0 1-.54-.71zm58.38 0l.78 5.57a3.52 3.52 0 0 1-.87 1.51l-2.63 2.3-1.76-9.38zm-31.34 22.43l.9-6.43h4.49l-1.47 7.83-3.92-1.4zm3.92-36.73a5.25 5.25 0 0 1 .61-.06l5.1 36.43-2.46 1.29-6.92-36.88a32.8 32.8 0 0 1 3.67-.78z" class="F"/><path d="M376.63 326.6a85 85 0 0 1-31.33-18.06 3.59 3.59 0 0 1-1-2.33v-2.42a3.08 3.08 0 0 1 1.1-2.2 76 76 0 0 1 31.19-13.18 6.6 6.6 0 0 1 2.69.15q16.07 4.89 24.67 14.12a4.07 4.07 0 0 1 .93 2.41v2.42a3.6 3.6 0 0 1-1 2.32 114.35 114.35 0 0 1-24.68 16.58 3.86 3.86 0 0 1-2.57.19z" class="B"/><path d="M344.29 303.79v2.42a3.59 3.59 0 0 0 1 2.33 84.88 84.88 0 0 0 31.33 18.06 3.61 3.61 0 0 0 1.42.11v-38.36a6.31 6.31 0 0 0-1.47.06 75.89 75.89 0 0 0-31.19 13.18 3.08 3.08 0 0 0-1.09 2.2z" class="L"/><path d="M378.05 288.35v38.36a3.18 3.18 0 0 0 1.13-.3 114.94 114.94 0 0 0 24.68-16.57 3.64 3.64 0 0 0 1-2.33v-2.42a4 4 0 0 0-.93-2.41q-8.6-9.23-24.67-14.13a6 6 0 0 0-1.21-.2z" class="O"/><use xlink:href="#X" class="B"/><use xlink:href="#X" class="H"/><path d="M410.65 268.69A49.89 49.89 0 0 0 377 249.24a4.55 4.55 0 0 0-2.49.48 2.55 2.55 0 0 0-1.13 2v10.2a1.62 1.62 0 0 0 1.37 1.55 49.85 49.85 0 0 1 33.7 19.45 1.56 1.56 0 0 0 1.95.46 2.58 2.58 0 0 0 1.13-2v-10.2a4.73 4.73 0 0 0-.88-2.49z" class="B"/><path d="M401.51 275.55l9.75-5.63a4.38 4.38 0 0 1 .23 1.25v10.2a2.58 2.58 0 0 1-1.13 2 1.56 1.56 0 0 1-1.95-.46 55.41 55.41 0 0 0-6.9-7.36z" class="O"/><path d="M401.51,275.55a49.7,49.7,0,0,0-26.8-12.06,1.62,1.62,0,0,1-1.37-1.55v-10.2a2.55,2.55,0,0,1,1.13-2,4.55,4.55,0,0,1,2.49-.48,49.89,49.89,0,0,1,33.69,19.45,4.42,4.42,0,0,1,.61,1.23Z" class="H"/><use xlink:href="#Y" class="B"/><use xlink:href="#Y" class="L"/><path d="M370.27 235.84c-5.08.35-7.9 2.34-9.31 6.47s-6.59 25.29-6.59 25.29-10.08 6.27-15.68 9.07l6.07 4.89s13.67-4.72 16.08-5.87 2.35-1.83 5-10.27c3.71-12.02 4.43-29.58 4.43-29.58z" class="M"/><path d="M371.92,235.69c-3-.15-7.8.5-9.86,3.8s-6,19.78-6,19.78,5.42,4.73,12.41,4.63l3.45-16.46Z" class="B"/><path d="M355.78 349.62s-.77 8.93-2.11 11.85a43.88 43.88 0 0 1-5.45 9.31c-.53.68-1.75 2-2.19 2.52a1 1 0 0 0 .19 1.57c1.21 1 6.13 1.05 8.77-1.15s4.74-5.71 6.29-7.45l2-2.32a2.2 2.2 0 0 0 .44-2.14l-.23-.75c-.77-2.61.52-10.2.52-10.2-2.5-3.14-5.29-1.93-8.23-1.24z" class="M"/><use xlink:href="#Z" class="D"/><path d="M364.57 361.73a6.27 6.27 0 0 1-.39 2.65c-1.06 1.63-3.71 2.28-5.15 4.51s-3.11 5.62-8.1 6.88-8.9-.16-9.9-1.54-.23-2.79 2.92-4.69c3.33-2 7.16-7.18 7.16-7.18 1.26-1.76 1.73-4 2.39-6.07.06-.2.17-.43.37-.45s.38.29.52.5a1.62 1.62 0 0 0 1 .56q.66.19 1.35.33a12.18 12.18 0 0 0 2.76.19 1.13 1.13 0 0 1 .87.2 1 1 0 0 1 .2.76 8.78 8.78 0 0 1-.09 1 .94.94 0 0 0 0 .5.62.62 0 0 0 .59.36 1.37 1.37 0 0 0 .68-.25 3.09 3.09 0 0 0 1.56-2.14s0-.51.05-1a1.27 1.27 0 0 1 .65.7c.11.38.09.8.17 1.19a19.55 19.55 0 0 1 .39 2.99z" class="F"/><path d="M334.36 337.93s-1 9.23-2.19 12.21a44.24 44.24 0 0 1-5 9.54c-.5.71-1.67 2-2.08 2.62a1 1 0 0 0 .26 1.56c1.26 1 6.17.77 8.71-1.54s4.49-5.92 6-7.73l1.93-2.4a2.22 2.22 0 0 0 .35-2.16l-.27-.74c-.88-2.58 1.43-9.73 1.43-9.73-2.73-3.02-6.24-2.45-9.14-1.63z" class="M"/><use xlink:href="#Z" x="-21.37" y="-11.19" class="D"/><path d="M343.2 350.54a6.27 6.27 0 0 1-.39 2.65c-1.06 1.63-3.71 2.28-5.15 4.51s-3.11 5.62-8.1 6.88-8.9-.15-9.9-1.54-.23-2.79 2.92-4.69c3.33-2 7.16-7.18 7.16-7.18 1.26-1.76 1.73-4 2.39-6.07.06-.2.17-.43.37-.45s.38.29.52.5a1.62 1.62 0 0 0 1 .56q.66.19 1.35.33a12.14 12.14 0 0 0 2.76.19 1.13 1.13 0 0 1 .87.2 1 1 0 0 1 .2.76 8.78 8.78 0 0 1-.09 1 .94.94 0 0 0 0 .5.61.61 0 0 0 .59.36 1.37 1.37 0 0 0 .68-.25 3 3 0 0 0 1.49-2.14 8.77 8.77 0 0 1 .12-1 1.31 1.31 0 0 1 .65.7c.11.38.09.8.17 1.19a19.55 19.55 0 0 1 .39 2.99zm56.01-66.05l-11.87-.85-24.15-1.94s-22.19 12.4-25.32 19.39c-1.83 4-3.61 34.88-3.92 39.44 1.66 1.33 6.53 2.77 8.56 2.42 1.26-3.63 2.36-5.19 4.12-10.55 1.43-4.36 2.76-7.27 3.78-10.28a44.64 44.64 0 0 0 2.13-10.91s7.82-5.35 13.68-7.58c-3.23 3.54-7.87 9.93-8.49 11.34-1.8 4-2.46 33.13-2.46 37.17 1.33 1.72 7.49 2.1 9.09 1 1.88-6.6 3.27-9.78 4.78-15.2 2.41-8.65 1.63-12.15 1.27-15.31 0 0 6.26-4 14.37-10.05a72.61 72.61 0 0 0 10-8.8c4.22-4.91 4.88-13.66 4.43-19.29z" class="F"/><path d="M366.22 303.63l6.69-7.46s-6.8-3-8.06-9.44a10.84 10.84 0 0 0 4.09 9.86l-4.53 6.33-11.87 8.29c4.9-2.5 9.78-5.21 13.68-7.58z" class="D"/><path d="M382.62 235.89a56.65 56.65 0 0 1 9.41 1.19c3.48 1.19 4.5 2.09 6.19 6.9 2.51 7.17 1.74 17.07 1.74 23.85l-.22 19.43c-7.61 6.43-32.4 3.45-36.55-5.56 0 0 2.11-10.61.65-31.16-.65-9.2 2.63-14.89 9-14.89.01 0 6.57.1 9.78.24z" class="E"/><g class="D"><path d="M375.55 213.66a7.6 7.6 0 1 1-7.94-7.25 7.61 7.61 0 0 1 7.94 7.25zm12.17 6.34l-1.78 9a3.32 3.32 0 0 1-1.84 1.69l-.13-5.36z"/><path d="M385.28,209.13s1.1-.33,2.37,1.47c1.09,1.55,1.48,5.1.07,9.36l-2.92.48Z"/><path d="M386.42 210.63l3.6-.1a1.69 1.69 0 0 0-1.72-1.82 2 2 0 0 0-1.88 1.92z"/><path d="M386.83 209.76l2.55-2.69a1.73 1.73 0 0 0-2.53 0 2 2 0 0 0-.02 2.69z"/></g><path d="M383.93 220.48c.6.34 1.39-.87 2.08-1.69s2.93-1.68 4.23.86-.63 5.15-2.26 6.11c-1.44.85-3.24-.8-3.24-.8l.24 12c-2.15 4.9-14.21 4.67-11.24.77l-.1-3.88a19.71 19.71 0 0 1-4.32.43c-2.37-.28-3.48-1.48-4.38-4.05a42.56 42.56 0 0 1-1.89-15.59c.86-8.44 11.09-11.08 16.82-7.69s4.06 13.53 4.06 13.53z" class="M"/><path d="M370.87 213.1a19 19 0 0 0 6-2.07.8.8 0 0 1 .59-.14c.22.07.32.3.41.5a19 19 0 0 0 1.21 2.82 4.26 4.26 0 0 0 2.25 2 1.77 1.77 0 0 1 1 .46 1.67 1.67 0 0 1 .32 1 8.73 8.73 0 0 1-.16 1.35 3.62 3.62 0 0 0 .13 2.24 1 1 0 0 0 1.48.18 5.78 5.78 0 0 0 1.08-1.44 9.68 9.68 0 0 1 1.16-1.46c.41-.39.2-1.22.27-1.77.14-1.1.19-2.22.23-3.33v-2.83a12.82 12.82 0 0 0-.39-3.15 5.5 5.5 0 0 0-1.42-2.31l-.2-.2a10 10 0 0 0-6.75-2.61c-2-.13-4 0-6 0a36.59 36.59 0 0 1-6.45-.6 1.79 1.79 0 0 0-.89 0 1.12 1.12 0 0 0-.58 1.25 3.27 3.27 0 0 0 .67 1.31 7.38 7.38 0 0 0-2-.58 2.48 2.48 0 0 0-2 .65 2.93 2.93 0 0 0-.52 2.45 7.84 7.84 0 0 0 5.26 6 11.24 11.24 0 0 0 5.3.28z" class="D"/><path d="M373.64,233.81s5.23-1.34,7-2.45a6.06,6.06,0,0,0,2.43-2.74,8.8,8.8,0,0,1-1.31,3.17c-1.26,1.85-8.07,3.48-8.07,3.48Z" class="U"/><path d="M373.26 219.94a1.06 1.06 0 1 0 2.11-.1 1.09 1.09 0 0 0-1.1-1.09 1.1 1.1 0 0 0-1.01 1.19zm.48-3.5l2.32 1.2a1.45 1.45 0 0 0-.61-1.85 1.24 1.24 0 0 0-1.71.65z" class="D"/><path d="M374.66 227.23l-3.14 1.39a1.66 1.66 0 0 0 2.22 1 1.89 1.89 0 0 0 .92-2.39z" class="U"/><path d="M363.92 218.48l2-1.75a1.22 1.22 0 0 0-1.8-.2 1.47 1.47 0 0 0-.2 1.95zm.77 2.16a1.09 1.09 0 0 0 1.1 1.09 1.14 1.14 0 1 0-1.1-1.09z" class="D"/><path d="M369.94 219.46l.52 6.81-3.84-.62 3.32-6.19z" class="U"/><path d="M331.9 371.05c-7.28-4.21-19.08-4.21-26.37 0-3.64 2.1-5.45 4.85-5.45 7.61v2.37c.06 2.71 1.87 5.41 5.45 7.48 7.29 4.2 19.09 4.2 26.37 0 3.6-2.08 5.42-4.8 5.46-7.53v-2.37c-.02-2.74-1.84-5.47-5.46-7.56z" class="F"/><path d="M305.53 386.27c-7.28-4.2-7.28-11 0-15.22s19.09-4.21 26.37 0 7.28 11 0 15.22-19.08 4.2-26.37 0z" class="E"/><path d="M321 376.86h0v-45.63h-4.6v45.63h0a1.08 1.08 0 0 0 .66 1.06 3.6 3.6 0 0 0 3.29 0 1.09 1.09 0 0 0 .65-1.06z" class="F"/><path d="M356.94 289.07c-21.14-12.21-55.41-12.21-76.55 0-10.57 6.1-15.85 14.1-15.84 22.1v1.55c0 8 5.27 16 15.84 22.1 21.14 12.21 55.41 12.21 76.55 0 10.57-6.1 15.85-14.1 15.85-22.1v-1.55c0-8-5.28-16-15.85-22.1z" class="E"/><use xlink:href="#a" class="B"/><use xlink:href="#a" class="C L"/><use xlink:href="#a" class="G"/><use xlink:href="#b" class="B"/><use xlink:href="#b" x="-0.05" class="C N"/><path d="M308.72,293.93l21.85-12.62a1.29,1.29,0,0,1,1.26,0l37.91,21.9a.27.27,0,0,1,0,.48l-22.06,12.74Z" class="G"/><path d="M310.35,291.27v.49a2,2,0,0,0,1,1.75l35.31,20.39a2,2,0,0,0,1,.27,2.08,2.08,0,0,0,1-.27L368,302.82a2,2,0,0,0,1-1.75v-.68h0a.24.24,0,0,1-.13.22l-21.14,12.21Z" class="F"/><path d="M347.68,312.83v1.34a2.07,2.07,0,0,1-1-.27l-35.31-20.39a2,2,0,0,1-1-1.75v-.49Z" class="D"/><path d="M310.35,291.27l20.94-12.09a1.22,1.22,0,0,1,1.2,0l36.33,21a.26.26,0,0,1,0,.46l-21.14,12.21Z" class="E"/><path d="M347.88 311.05l11.29-6.51-33.03-19.07-11.35 6.48 33.09 19.1z" class="F"/><path d="M314.79 291.95l.43.25 10.92-6.24 32.6 18.82.43-.24-33.03-19.07-11.35 6.48zm38.64.98l-.21.12-5.54 3.19-9.84-5.68-.21-.12 5.75-3.31 10.05 5.8z" class="D"/><path d="M353.22 293.05l-5.54 3.19-9.84-5.68 5.54-3.2 9.84 5.69z" class="F"/><path d="M355.44 266.92l-8.68 5.14-6.07 3c-1.84.91-4.15 1.69-5.48 2.94s-8.15 8-9.63 9.17-.75 2.45 2 3.26a8.34 8.34 0 0 0 6.65-.69 27.74 27.74 0 0 0 4.54-3.37 7 7 0 0 0 3.67-1.24c1.45-1.18 2.32-2.59 3.15-3.3s8.8-3.68 14.84-6z" class="M"/><path d="M347.11,313.12a2.41,2.41,0,0,1-2.06-.15l-35.16-20.31a2.35,2.35,0,0,1-1.16-1.67L304.88,268a2.69,2.69,0,0,1,0-.4,2.4,2.4,0,0,1,.7-1.7L342.09,287a1.78,1.78,0,0,1,.86,1.24Z" class="F"/><path d="M347.68,312.83l-.24.14a1.66,1.66,0,0,1-.33.15L343,288.28a1.78,1.78,0,0,0-.86-1.24l-36.54-21.1a2.62,2.62,0,0,1,.49-.37l36.62,21.14a1.77,1.77,0,0,1,.85,1.24Z" class="E"/><path d="M342.61 287.51l.57-.33a1.71 1.71 0 0 1 .33.77l4.17 24.88-.24.14a2.52 2.52 0 0 1-.33.15L343 288.28a1.84 1.84 0 0 0-.39-.77z" class="D"/><path d="M327.31 291.93a7.79 7.79 0 0 0-3.54-4.56c-1.7-1-2.87-.53-2.61 1a7.72 7.72 0 0 0 3.54 4.56c1.7.99 2.87.54 2.61-1z" class="B"/><ellipse cx="284.8" cy="312.14" rx="8.72" ry="5.04" class="Q"/><path d="M290.42,312.65c3-3.07,4.78-10.74,1.84-13.17H277.33c-2.93,2.43-1.16,10.09,1.84,13.16l.08.09.11.1.27.24.07.06.23.17.39.25a9.89,9.89,0,0,0,9,0h0l.39-.25c.08-.05.14-.11.21-.16l.09-.07.26-.24.12-.11Z" class="F"/><path d="M278.63 298.5c-3.41 2-3.41 5.15 0 7.12a13.62 13.62 0 0 0 12.34 0c3.4-2 3.4-5.16 0-7.12a13.62 13.62 0 0 0-12.34 0z" class="E"/><path d="M281.05 299.89c-2.08 1.2-2.08 3.14 0 4.34a8.32 8.32 0 0 0 7.5 0c2.07-1.2 2.07-3.14 0-4.34a8.32 8.32 0 0 0-7.5 0z" class="D"/><path d="M288.55 302a8.26 8.26 0 0 0-7.5 0 3.41 3.41 0 0 0-1.25 1.14 3.59 3.59 0 0 0 1.25 1.14 8.32 8.32 0 0 0 7.5 0 3.47 3.47 0 0 0 1.24-1.14 3.3 3.3 0 0 0-1.24-1.14z" class="T"/><use xlink:href="#c" class="B"/><use xlink:href="#c" opacity=".25"/><path d="M282.9 298.16a34.53 34.53 0 0 1-2-8.83 16 16 0 0 0-.31 2.34 17.5 17.5 0 0 0 .31 4.15 8 8 0 0 0 2 2.34zm3.04 5.58a10.12 10.12 0 0 1-4.08-1.68c-1.91-1.42-4.71-5.93-5-7.74a10.51 10.51 0 0 0 1.3 4.74 18.92 18.92 0 0 0 3 4 10.49 10.49 0 0 0 4.78.68z" class="G"/><path d="M373.44 291.86c1-.86 17.68-6.53 20.72-8.16s3.34-3.08 4.2-7.69c1.25-6.69 3.77-24.52 3.5-30.21-.2-4.11-4.26-8.4-10.05-8.09-1.91 2-3.39 7.53-2.61 16.85-.32 4-2.71 20.55-2.71 20.55-2.62 1.36-8.86 5.26-11.91 7-2.16 1.2-3.68 1.84-6.07 3-1.84.91-4.15 1.69-5.48 2.93l-9.63 9.18c-1.48 1.18-.75 2.45 2 3.26a8.34 8.34 0 0 0 6.65-.69 27.74 27.74 0 0 0 4.54-3.37 6.9 6.9 0 0 0 3.66-1.24c1.49-1.18 2.36-2.61 3.19-3.32z" class="M"/><path d="M391.46 236.92c3.13.31 6.69.34 9.24 3.78 1.95 2.65 1.5 5.35.86 13.81-.6 7.88-1.27 12.68-1.27 12.68s-4.73 2-12.8-2.24l1.24-11s-1.64-12.68 2.73-17.03z" class="B"/><path d="M244.82 394.18c-1.54 2.77-5.77 6.6-5.65 11s5.23 9.32 5.23 9.32l7.92-3.05zM295.58 421c1 1.16 4.25 5.39 3.26 12.67-.89 6.56-6.78 9.77-11 10.22-1.84.19-1.67-.91-.29-1.46 2.87-1.14 7.63-3.7 7.85-9.63s-3.18-8.57-3.18-8.57z" class="F"/><path d="M295 438.94a1.71 1.71 0 0 1-1-1.5 13.11 13.11 0 0 1-6.46 4.94c-1.38.55-1.55 1.65.29 1.46a13.35 13.35 0 0 0 8.61-4.63 2.41 2.41 0 0 1-1.44-.27z" class="V"/><g class="F"><path d="M267.36 409.48c-6.29.17-8.21.52-9.69 2.88s3.26 6.54 3.26 6.54-3.52-.78-5.18 0-.92 3.22 5.18 5a85.6 85.6 0 0 0 11.93 2.44s8.82-6.77 3.49-13.12-8.99-3.74-8.99-3.74z"/><path d="M280.48 408.55a19.56 19.56 0 0 0-7.48-10.84c-5.43-3.83-11.5-7.07-17.42-7.51-2.65 2.86-7.89 2.89-10.95 3.16a37.22 37.22 0 0 0 .64 8.65c.91 3.71 2.23 5.81 4.89 7.58 1.58 1 7.76 2.55 9.89 2.76a49.14 49.14 0 0 0 6.42.21 5.82 5.82 0 0 1 2.79.34 12.78 12.78 0 0 1 2.16 1.88 8.81 8.81 0 0 0 5.13 1.59 5.49 5.49 0 0 0 3.21-.46 3 3 0 0 0 1.41-2.91 29.24 29.24 0 0 0-.69-4.45z"/></g><path d="M279.79 411.24l1.36 1.42v.34a3 3 0 0 1-1.41 2.91 5.49 5.49 0 0 1-3.21.46 8.81 8.81 0 0 1-5.13-1.59 12.78 12.78 0 0 0-2.16-1.88 4.79 4.79 0 0 0-2.26-.35c4.45-3.2 12.81-1.31 12.81-1.31z" class="D"/><path d="M259.62 384.86c2.19 2.43 14.78 2.87 21.42 5.48 6.28 2.46 14.82 9 16.34 16.48 1.16 5.78 1.33 15-6.71 20.85-8.91 6.46-26 .62-28.21-.24-3.37-1.35-4.79-3.07-4.23-4.22s2.7-1.51 4.9-1.1a41.29 41.29 0 0 1 5.46 1.64c-6.62-5-6.17-9-3.71-10.72 4.55-3.16 13.62.52 13.62.52a13 13 0 0 0-1.92-5.1c-1.11-1.66-5-4.62-8.18-3.37s-4.4 4.44-8.4 8.42-13.74 6-16.08 6.33a11.27 11.27 0 0 0-5.77 2.57c-1.38 1.22-2.39 2.82-4 3.33a1.87 1.87 0 0 1-2.06-.91c-2.13.53-2.2-1.27-2.2-1.27-.82-.94-.31-2.44 1.52-4.27s7.72-5 12.83-7 6.28-3.11 8.28-6.87c1.78-3.33 1.55-7.9 1.5-11.19V393" class="E"/><path d="M253.29 395.06c-4.1 1.43-7.19.94-8.63.06v-1.76c.68-.5 1.66.39 2.36 0l3.53-.09 5.35-2.92 4.49-4.65a10.83 10.83 0 0 1-7.1 9.36z" class="G"/><use xlink:href="#d" class="B"/><use xlink:href="#d" class="H"/><path d="M235.11 396.07c.1-2.48-.19-5.35.44-5.66s1.32.57 1.32.57l-1-6.43s-1.55-.22-2.16 1.93 1.4 9.59 1.4 9.59z" class="D"/><path d="M242.34 377.16c-3.3 1.35-5.89 3-6.63 5.88-.48 1.86.48 7 1.55 9.34s1.66 3.17 5.45 5.21c1.73.93 3.21 3 5.71 4.37 2 1.11 2.75 1.23 4.17 1a2.45 2.45 0 0 0 1.48-.93 5.47 5.47 0 0 0 1.31-.18c1.32-.39 2.09-1.56 2.18-3.33a20.22 20.22 0 0 0-.5-5.15c-.26-1.53.88-4.15-.37-8-1.58-4.9-4.6-8.33-6.56-9.09s-4.59-.43-7.79.88z" class="E"/><path d="M253.41 393.48c-2.21-.62-3.43-2.53-4.11-2.19s.06 2.44-.32 3.76-1 1.75-1.78 3.25a5.66 5.66 0 0 0-.55 2.47 7.07 7.07 0 0 0 1.8 1.4c2 1.12 2.71 1.12 4.12.83a2.39 2.39 0 0 0 1.5-1 4.88 4.88 0 0 0 1.38-.14c1.33-.38 2.1-1.58 2.19-3.35a16.71 16.71 0 0 0-.16-2.62c-.29-1.79-1.86-1.79-4.07-2.41z" class="V"/><path d="M257.51 399.44a2.75 2.75 0 0 1-.84 1 4.66 4.66 0 0 1-2.22.43l-1 .23a3.2 3.2 0 0 1-3.27.55 6 6 0 0 1-3-3.26 5.61 5.61 0 0 0-.51 2.37 7.07 7.07 0 0 0 1.8 1.4c2 1.12 2.71 1.12 4.12.83a2.39 2.39 0 0 0 1.5-1 4.88 4.88 0 0 0 1.38-.14 3 3 0 0 0 2.04-2.41z" class="T"/><path d="M255,401.27l.15-.2s.67-1.35,0-1.38a11,11,0,0,0-3.43,1.51c-.27.24.48.82.79.85a6.31,6.31,0,0,0,.9,0Z" class="D"/><path d="M254.21 402a1.51 1.51 0 0 1-1.46 0c-.14-.16-.43-.7-.67-.62s.43.63.43.63a2.3 2.3 0 0 1-1-.1c-.5-.2-1.09-.76-1-1.32a3.4 3.4 0 0 1 2.16-2 3.18 3.18 0 0 1 2.76.05c.34.19.47 1 .32 1.56a1.53 1.53 0 0 1-.55.81s.21-.81 0-.81-.1.94-.1.94-.1.61-.89.86z" class="E"/><path d="M255.45 398.75l-.07-.05a3.18 3.18 0 0 0-2.76-.05 3.85 3.85 0 0 0-2.07 1.71c1.77.04 4.28-.87 4.9-1.61z" class="F"/><path d="M252.21 390a.2.2 0 0 1-.31-.21 1.81 1.81 0 0 1 1-1.11 7.48 7.48 0 0 0 2.21-1.8c.26-.55.63.68-.37 1.59a19.89 19.89 0 0 1-2.53 1.53zm-6.21 2.32a.21.21 0 0 0 0-.39 2.32 2.32 0 0 0-1.55.11 9.16 9.16 0 0 1-2.78.65c-.61 0 .16.92 1.49.68a24.09 24.09 0 0 0 2.84-1.05z" class="D"/><path d="M250.83 378.54c1.36-.07 2.65 1.74 3.38 3.24a68.1 68.1 0 0 1 2.86 6.78c.6 1.85 1.44.36 1.76-2.77s.89-6.65-.18-8.43-3.58-2.5-6.35-2.91c-1.76-.26-2.74.63-4.3 1.4a7.46 7.46 0 0 0 2.83 2.69z" class="F"/><path d="M246.42 376a18.28 18.28 0 0 0-4.08 1.2 20.82 20.82 0 0 0-3.34 1.71c2-.37 3.2 1.2 4.58 3.41s2.35 4.17 2.8 3.89-2.21-6.33-2-7.67a2.82 2.82 0 0 1 2.04-2.54z" class="V"/><path d="M236.85 380.72a6.52 6.52 0 0 0-3.76 1.94 19.79 19.79 0 0 0-2.62 4.73 5.41 5.41 0 0 0 .8 4.26c.79 1.27 2.45 4 2.63 5.39s.9.68 1.16-.57-.33-5.68-.5-7.29-.34-4.15 1.3-4.63c1.4-1.89 1.4-3.16.99-3.83z" class="F"/><path d="M185.77,141.37s-1.68,12.91-18.27,16.78c0,0,15.4,5.16,31.37-9.15Z" class="B"/><path d="M185.77,141.37s-1.68,12.91-18.27,16.78c0,0,15.4,5.16,31.37-9.15Z" class="C K"/><use xlink:href="#e" class="B"/><g class="C"><use xlink:href="#e" class="K"/><path d="M177.41 57.3c.14-1 1-1.42 2-.84l127.16 73.42a4.08 4.08 0 0 1 1.42 1.49l4.7-2.71a4 4 0 0 0-1.42-1.5L184.1 53.75a4.37 4.37 0 0 0-4 0l-.69.39a4.53 4.53 0 0 0-2 3.16z" class="L"/></g><path d="M306.9 211.26a4.47 4.47 0 0 0 3.67-.16l.7-.4a4.46 4.46 0 0 0 2-3.48v-76.59a4.08 4.08 0 0 0-.59-2l-4.7 2.71a4.15 4.15 0 0 1 .59 2v76.6c0 1.15-.73 1.68-1.67 1.32z" class="G"/><path d="M308.57,200.2s7.55,7.3,22.66,5.58c-9.85-4.42-20.39-13.78-22.66-33.7Z" class="B"/><path d="M308.57,200.2s7.55,7.3,22.66,5.58c-9.85-4.42-20.39-13.78-22.66-33.7Z" class="C K"/><path d="M193.42 85.61a.29.29 0 0 1-.16 0l-7.55-4.36a.32.32 0 0 1-.16-.27v-8.76a.32.32 0 0 1 .16-.27.34.34 0 0 1 .31 0l7.55 4.36a.32.32 0 0 1 .16.27v8.72a.3.3 0 0 1-.16.27.28.28 0 0 1-.15.04zm-7.25-4.85l6.94 4v-8l-6.94-4zm7.25 22.3a.42.42 0 0 1-.16 0l-7.55-4.36a.32.32 0 0 1-.16-.27v-8.77a.32.32 0 0 1 .47-.26l7.55 4.36a.3.3 0 0 1 .16.27v8.72a.32.32 0 0 1-.16.27.42.42 0 0 1-.15.04zm-7.25-4.85l6.94 4v-8l-6.94-4zm7.25 22.29a.29.29 0 0 1-.16 0l-7.55-4.36a.32.32 0 0 1-.16-.27v-8.72a.32.32 0 0 1 .16-.27.34.34 0 0 1 .31 0l7.55 4.36a.32.32 0 0 1 .16.27v8.72a.3.3 0 0 1-.16.27.28.28 0 0 1-.15 0zm-7.25-4.85l6.94 4v-8l-6.94-4zm12.03-36.31l20.65 11.92a2.18 2.18 0 0 1 1 1.68c0 .6-.45.83-1 .5L198.2 81.52a2.15 2.15 0 0 1-1-1.67c-.01-.6.44-.85 1-.51zm0 4.39l11 6.39a2.17 2.17 0 0 1 1 1.67c0 .6-.45.83-1 .51l-11-6.39a2.15 2.15 0 0 1-1-1.67c-.01-.61.44-.83 1-.51zm0 13.09l20.65 11.92a2.17 2.17 0 0 1 1 1.67c0 .6-.45.83-1 .51L198.2 99a2.15 2.15 0 0 1-1-1.67c-.01-.6.44-.83 1-.51zm0 4.38l11 6.39a2.18 2.18 0 0 1 1 1.68c0 .6-.45.83-1 .51l-11-6.4a2.15 2.15 0 0 1-1-1.67c-.01-.6.44-.83 1-.51zm0 13.09l20.65 11.93a2.15 2.15 0 0 1 1 1.67c0 .6-.45.83-1 .51l-20.65-11.93a2.14 2.14 0 0 1-1-1.67c-.01-.6.44-.8 1-.51zm0 4.39l11 6.39a2.17 2.17 0 0 1 1 1.67c0 .6-.45.83-1 .51l-11-6.39a2.15 2.15 0 0 1-1-1.67c-.01-.6.44-.83 1-.51z" class="I"/><path d="M190.53 81.56h-.12a1 1 0 0 1-.72-.52l-1.85-3.94a.93.93 0 0 1 1.68-.79l1.24 2.64L195 74a.93.93 0 0 1 1.41 1.21l-5.2 6.06a1 1 0 0 1-.68.29zm0 17.44h-.12a1 1 0 0 1-.72-.52l-1.85-3.94a.93.93 0 0 1 1.68-.79l1.24 2.64 4.27-5a.93.93 0 0 1 1.41 1.21l-5.2 6.06a1 1 0 0 1-.71.34z" class="E"/><path d="M193.33 138a.29.29 0 0 1-.16 0l-7.55-4.36a.32.32 0 0 1-.16-.27v-8.72a.32.32 0 0 1 .16-.27.29.29 0 0 1 .31 0l7.55 4.36a.32.32 0 0 1 .16.27v8.72a.32.32 0 0 1-.16.27.26.26 0 0 1-.15 0zm-7.25-4.85l6.94 4v-8l-6.94-4zm12.03-1.37l20.65 11.92a2.15 2.15 0 0 1 1 1.67c0 .61-.45.84-1 .51L198.11 134a2.18 2.18 0 0 1-1-1.67c0-.64.45-.87 1-.55zm0 4.39l11 6.39a2.17 2.17 0 0 1 1 1.67c0 .6-.45.83-1 .51l-11-6.39a2.18 2.18 0 0 1-1-1.67c0-.61.45-.83 1-.51z" class="I"/><g class="E"><path d="M190.45 116.52h-.13a.92.92 0 0 1-.71-.52l-1.85-3.93a.93.93 0 1 1 1.68-.79l1.24 2.63 4.26-5a.93.93 0 0 1 1.41 1.21l-5.2 6.06a.92.92 0 0 1-.7.34zm0 17.48h-.13a.93.93 0 0 1-.71-.53l-1.85-3.93a.93.93 0 1 1 1.68-.79l1.24 2.63 4.26-5a.93.93 0 0 1 1.41 1.21l-5.2 6a.92.92 0 0 1-.7.41zm95.12 38.38l1 .91a.92.92 0 0 1 .25.49 6.87 6.87 0 0 0 .13.72.35.35 0 0 1-.21.39l-.59.25a.28.28 0 0 0-.15.38l.69 1.51a.45.45 0 0 0 .42.25h.73a.59.59 0 0 1 .47.22 7 7 0 0 0 .53.69.79.79 0 0 1 .18.51l-.07 1.06a.62.62 0 0 0 .22.47l1.14.87a.19.19 0 0 0 .32-.09l.26-.84a.27.27 0 0 1 .36-.16 2.32 2.32 0 0 0 .47.15.74.74 0 0 1 .43.32l.72 1.33a.41.41 0 0 0 .43.19l.76-.16a.25.25 0 0 0 .19-.34l-.51-1.36a.47.47 0 0 1 .12-.47 2.11 2.11 0 0 0 .19-.23.3.3 0 0 1 .41-.09l1 .65a.18.18 0 0 0 .3-.13l.19-1.07a.6.6 0 0 0-.17-.49l-1-.91a.86.86 0 0 1-.25-.48 6 6 0 0 0-.13-.72.37.37 0 0 1 .21-.4l.59-.25a.29.29 0 0 0 .16-.38l-.69-1.5a.48.48 0 0 0-.43-.26h-.73a.61.61 0 0 1-.47-.23 5.89 5.89 0 0 0-.53-.68.83.83 0 0 1-.17-.52l.06-1.05a.61.61 0 0 0-.21-.48l-1.15-.87a.19.19 0 0 0-.32.1l-.26.83a.25.25 0 0 1-.36.16 4.26 4.26 0 0 0-.47-.15.73.73 0 0 1-.43-.32l-.72-1.33a.4.4 0 0 0-.43-.19l-.76.16a.25.25 0 0 0-.19.34l.52 1.36a.51.51 0 0 1-.12.47 2.2 2.2 0 0 0-.2.23.3.3 0 0 1-.41.09l-1-.64a.18.18 0 0 0-.3.12l-.19 1.08a.58.58 0 0 0 .17.49zm2.87 1.24c.23-1.27 1.41-1.53 2.65-.58a4.71 4.71 0 0 1 1.84 4c-.23 1.26-1.41 1.52-2.65.57a4.69 4.69 0 0 1-1.84-3.99zm.02 14.21l1.22 1.09a1 1 0 0 1 .3.59 8.85 8.85 0 0 0 .16.87.42.42 0 0 1-.25.48l-.72.3a.35.35 0 0 0-.18.46l.83 1.83a.57.57 0 0 0 .51.3h.89a.75.75 0 0 1 .57.28 10 10 0 0 0 .64.82 1 1 0 0 1 .21.62l-.08 1.28a.77.77 0 0 0 .26.57l1.39 1.06a.23.23 0 0 0 .39-.12l.31-1a.32.32 0 0 1 .43-.2 3.71 3.71 0 0 0 .57.18.91.91 0 0 1 .53.39l.86 1.61a.52.52 0 0 0 .53.23l.92-.2a.3.3 0 0 0 .23-.41l-.63-1.64a.58.58 0 0 1 .15-.57 3.48 3.48 0 0 0 .24-.28.36.36 0 0 1 .49-.11l1.22.78a.22.22 0 0 0 .37-.15l.23-1.3a.72.72 0 0 0-.21-.59l-1.22-1.09a1.08 1.08 0 0 1-.3-.59 8.85 8.85 0 0 0-.16-.87.44.44 0 0 1 .25-.49l.72-.29a.36.36 0 0 0 .18-.47l-.83-1.82a.56.56 0 0 0-.51-.3h-.89a.75.75 0 0 1-.57-.28 10.19 10.19 0 0 0-.64-.83 1 1 0 0 1-.21-.62l.08-1.28a.75.75 0 0 0-.26-.57l-1.39-1.05a.23.23 0 0 0-.39.12l-.31 1a.32.32 0 0 1-.43.2 5.43 5.43 0 0 0-.57-.19.9.9 0 0 1-.53-.38l-.86-1.61a.51.51 0 0 0-.53-.23l-.92.2a.3.3 0 0 0-.23.41l.63 1.64a.59.59 0 0 1-.15.57 3.48 3.48 0 0 0-.24.28.36.36 0 0 1-.49.11l-1.22-.79a.23.23 0 0 0-.37.16l-.23 1.3a.74.74 0 0 0 .21.59zm3.48 1.49c.27-1.53 1.7-1.85 3.2-.7a5.68 5.68 0 0 1 2.22 4.85c-.27 1.53-1.7 1.84-3.2.7a5.68 5.68 0 0 1-2.22-4.85z"/><path d="M268.11 174.06l1.7 1.52a1.56 1.56 0 0 1 .41.82 10.64 10.64 0 0 0 .22 1.21.61.61 0 0 1-.34.67l-1 .41a.48.48 0 0 0-.26.64l1.16 2.53a.77.77 0 0 0 .71.42l1.23-.06a1 1 0 0 1 .78.39l.89 1.15a1.34 1.34 0 0 1 .3.86l-.11 1.77a1 1 0 0 0 .36.79l1.92 1.47a.32.32 0 0 0 .54-.17l.43-1.39a.44.44 0 0 1 .61-.27 6.52 6.52 0 0 0 .79.25 1.25 1.25 0 0 1 .72.53l1.21 2.23a.69.69 0 0 0 .72.33l1.28-.28a.42.42 0 0 0 .32-.56l-.87-2.28a.83.83 0 0 1 .2-.79 3.09 3.09 0 0 0 .33-.39.49.49 0 0 1 .68-.15l1.7 1.08a.31.31 0 0 0 .51-.21l.32-1.8a1 1 0 0 0-.29-.82l-1.7-1.52a1.49 1.49 0 0 1-.41-.82 10.48 10.48 0 0 0-.22-1.2.59.59 0 0 1 .35-.67l1-.42a.47.47 0 0 0 .26-.64l-1.16-2.52a.8.8 0 0 0-.71-.43l-1.23.06a1 1 0 0 1-.78-.38l-.89-1.15a1.36 1.36 0 0 1-.3-.86l.11-1.78a1 1 0 0 0-.36-.79l-1.92-1.47a.32.32 0 0 0-.54.17l-.43 1.4a.44.44 0 0 1-.61.27 6.48 6.48 0 0 0-.74-.21 1.23 1.23 0 0 1-.73-.53l-1.27-2.28a.69.69 0 0 0-.72-.33l-1.28.28a.43.43 0 0 0-.32.57l.87 2.28a.81.81 0 0 1-.2.79 3.09 3.09 0 0 0-.33.39.5.5 0 0 1-.68.15l-1.7-1.09a.31.31 0 0 0-.51.22l-.32 1.8a1 1 0 0 0 .3.81zm4.82 2.07c.38-2.12 2.37-2.55 4.45-1s3.46 4.6 3.08 6.72-2.37 2.56-4.45 1-3.45-4.59-3.08-6.72z"/></g><use xlink:href="#f" class="B"/><use xlink:href="#f" class="H"/><path d="M279.92,128.74a11,11,0,0,1,6,1.7,22.51,22.51,0,0,1,6,5.26l-6,11.18Z" class="B"/><path d="M279.92,128.74a11,11,0,0,1,6,1.7,22.51,22.51,0,0,1,6,5.26l-6,11.18Z" class="Q"/><path d="M273.86,133a6.93,6.93,0,0,1,6.06-4.24l6,18.14Z" class="B"/><path d="M273.86,133a6.93,6.93,0,0,1,6.06-4.24l6,18.14Z" opacity=".2"/><path d="M273.86 133l12.05 13.9 11.61 14.72c-2.28 3.7-6.62 4.6-11.61 1.71-7.33-4.23-13.29-15-13.29-24.11a14.4 14.4 0 0 1 1.24-6.22z" class="B"/><path d="M299.5 154.56c0-6.29-2.81-13.6-7.34-19.06h0a22.8 22.8 0 0 0-6.09-5.32 11.36 11.36 0 0 0-6.17-1.75 7.25 7.25 0 0 0-6.32 4.42 14.64 14.64 0 0 0-1.27 6.35c0 9.16 6 20.1 13.45 24.38a11.72 11.72 0 0 0 5.78 1.75 7.09 7.09 0 0 0 6.24-3.57h0a13.93 13.93 0 0 0 1.72-7.2zm-2 6.49l-7.58-9.61-3.62-4.59 4.86-9 .83-1.56c4.28 5.31 6.92 12.29 6.92 18.31a13.84 13.84 0 0 1-1.43 6.45zm-11.72-30.34a22.14 22.14 0 0 1 5.79 5L286 146.1l-5.62-17v-.05a11.2 11.2 0 0 1 5.38 1.66zm-6.06-1.65l2.48 7.51 3 9-10.91-12.58a6.62 6.62 0 0 1 5.41-3.93zm6.37 34c-7.25-4.19-13.14-14.88-13.14-23.85a14.48 14.48 0 0 1 1-5.65l11.74 13.53h0l11.46 14.54c-2.3 3.5-6.52 4.06-11.08 1.42z" class="I"/><path d="M296.08 129.7l-19.07-11c-.32-.18-.58 0-.58.34v.75a1.27 1.27 0 0 0 .58 1l19.07 11c.32.18.58 0 .58-.34v-.75a1.27 1.27 0 0 0-.58-1zM236 114.53l20.4 11.78c.43.25.79 0 .79-.6v-16.3l-10.39 5.64c-.36.15-.85-.13-1.2-.69l-10.35-17.64V113a1.88 1.88 0 0 0 .75 1.53zm21.23-6.11l-22-12.69 10.42 15.82c.34.52.79.78 1.13.66zm-24.71 24.97a8 8 0 0 0 3.35 6.41l17.39 10c1.85 1.07 3.35-.07 3.35-2.54a8 8 0 0 0-3.35-6.41h0v-3.59c0-3.88-2.37-8.4-5.29-10.09-2.36-1.36-4.32-.24-4.76 2.49a7.14 7.14 0 0 0-2.74-3.5c-2.42-1.4-4.39.09-4.39 3.33V131l-.19-.11c-1.89-1.11-3.37.03-3.37 2.5zm8.39 2.21l3.65-2.64 3.66 6.86-1.73-1v4.74l-3.85-2.22v-4.74zm13.51 22.09a2.36 2.36 0 0 0-.87-.9l-19.81-11.44c-.57-.33-1-.16-1.18.36a1.41 1.41 0 0 0-.05.35v10a1.9 1.9 0 0 0 1.12 2l3.08 1.79 1.85 5.31a.25.25 0 0 0 .38.13h0 0l1.75-3 12.78 7.39a1 1 0 0 0 .26.12h0c.55.16 1-.16 1-.83v-10a2.62 2.62 0 0 0-.31-1.28zm-3.7 6.25l-14.14-8.2a1.46 1.46 0 0 1-.75-1.1c0-.37.33-.47.75-.24l14.14 8.21a1.47 1.47 0 0 1 .74 1.09c0 .37-.33.48-.74.24zm0-3.35l-14.14-8.21a1.48 1.48 0 0 1-.75-1.1c0-.37.33-.48.75-.24l14.14 8.2a1.49 1.49 0 0 1 .74 1.11c0 .36-.33.48-.74.24z" class="E"/><defs ><path id="B" d="M177.7 227.65a12.2 12.2 0 0 1-6.68-1.82 4 4 0 0 1 0-7.29 13.17 13.17 0 0 1 13.36 0 4 4 0 0 1 0 7.29 12.23 12.23 0 0 1-6.68 1.82z"/><path id="C" d="M188.42 243.13a9.38 9.38 0 0 1-5.13-1.4 3 3 0 0 1 0-5.6 10.1 10.1 0 0 1 10.26 0 3 3 0 0 1 0 5.6 9.33 9.33 0 0 1-5.13 1.4z"/><path id="D" d="M173.08 182.5a10.27 10.27 0 0 0 9.29 0c2.57-1.48 2.57-3.88 0-5.36a10.21 10.21 0 0 0-9.29 0c-2.57 1.48-2.57 3.86 0 5.36z"/><path id="E" d="M177.72 182.85a8.66 8.66 0 0 1-4.26-1 2.09 2.09 0 0 1 0-4 9.51 9.51 0 0 1 8.53 0 2.09 2.09 0 0 1 0 4 8.7 8.7 0 0 1-4.27 1z"/><path id="F" d="M194.25 238.41a3.47 3.47 0 0 0 1.4-.2 3.41 3.41 0 0 0 1.65-2c.41-1 1.07-3.07.6-4.16-.59-1.38-2.26-1.43-3.37-1.47h-.39l-.06 1.32h.49c.62 0 2 .24 2.15.59.52.86-.81 4.15-1.38 4.51a5.28 5.28 0 0 1-2.15 0l-.43 1.1a5.1 5.1 0 0 0 1.49.31z"/><path id="G" d="M182.59 229c.13-.56.68-1.12 1.67-1.56a11.94 11.94 0 0 1 8.29-.08c1 .42 1.56 1 1.7 1.52h0c.43 3.69-.18 8-1.48 10.38v.05h0 0a2.8 2.8 0 0 1-1.07 1 6.91 6.91 0 0 1-6.29.07 2.76 2.76 0 0 1-1.09-1h0 0v-.05c-1.34-2.36-2-6.65-1.7-10.35z"/><path id="H" d="M127.86,246.84s12.86,6.06,19.47,9.61,12.89,7,14.2,9.87c1.39,3,1,10.22.31,17.15s-2.24,19.36-2.24,19.36l-19.35-29L120.81,261Z"/><path id="I" d="M95.57 254.42a30.37 30.37 0 0 0 5.17 13.3c3.11 4.92 9.52 8.51 17.86 11.31 6.91 2.32 17.06 5.63 19.07 6.06s2.44 1.51 2.9 5.08 2.87 9.07 8.26 15.46a173.27 173.27 0 0 1 10.95 14.84s5.63 0 7.79-3.75l-18.19-41.26c-2.51-4.26-22.86-15.55-22.86-15.55l.62-13.23z"/><path id="J" d="M101.15 212.09l-6.77 2.39s3 6.42 2.39 11.89c-.63 5.92-1.2 6.48-3 8a128.49 128.49 0 0 0 2.34 23.35s8.77 2.91 21.63-.74c11.29-3.21 10.17-10.18 10.17-10.18l-4.91-3.7-1.3-9.94s5.49-5.25 2.2-11.47-11.21-12.46-11.21-12.46l-2.38.66z"/><path id="K" d="M64.61,317.3c5.13-5.24,8.15-26.56,3.14-30.71H42.27c-5,4.15-2,25.46,3.13,30.71l.14.14.18.17c.15.15.3.28.47.42l.12.09.39.3a6.65,6.65,0,0,0,.66.42,16.88,16.88,0,0,0,15.29,0h0a6.18,6.18,0,0,0,.66-.43l.36-.27.16-.12a5.66,5.66,0,0,0,.44-.4l.21-.2Z"/><path id="L" d="M44.48 284.91c-5.81 3.36-5.81 8.8 0 12.16s15.24 3.35 21.05 0 5.82-8.8 0-12.16-15.24-3.36-21.05 0z"/><path id="M" d="M62.74 290.76a17.12 17.12 0 0 0-15.46 0 7.11 7.11 0 0 0-2.56 2.35 7.09 7.09 0 0 0 2.56 2.34 17.05 17.05 0 0 0 15.46 0 7.17 7.17 0 0 0 2.56-2.34 7.19 7.19 0 0 0-2.56-2.35z"/><path id="N" d="M55.34 292.58a17.27 17.27 0 0 1-8.82-1c-4.87-1.83-5.62-5.09-5.62-5.09s4.14-3.19 7.35-2.92a28.67 28.67 0 0 0-9.56-1.23s-2.76-1.51-1.47-6.29c0 0 3-1.59 9.23.14a20.61 20.61 0 0 0-8.27-4.19c-.44-.06 1.1-6.31 2.06-9.06s1.93-2.15 4.16-1.56 9 4 9.62 5.76-.85 5.75-.85 5.75a8.28 8.28 0 0 0 3.1-3.4 8 8 0 0 1 4.06 2.44c1.74 2 1 3 .1 4.56a19.3 19.3 0 0 1-3.33 4.34s2.24-.45 5-5.21a25.41 25.41 0 0 1 1.45 7c-.02 2.86-3.55 8.38-8.21 9.96z"/><path id="O" d="M54.28 295.15a.27.27 0 0 0 .16-.22c.67-8.32 10.09-21.32 14.25-23.93a.26.26 0 0 0 .08-.35.27.27 0 0 0-.35-.08c-4.23 2.66-13.8 15.87-14.48 24.32a.25.25 0 0 0 .23.27.21.21 0 0 0 .11-.01z"/><path id="P" d="M273.65,256.06c0,1.76-.2,6.29.8,9.37,1.12,3.45.61,8.05-5.8,10.18-7.08,2.36-11.45-1-15-1.85s-3-4-.06-3.7c3.52.33,9.21,4.05,14.2,2.14,4.68-1.8,3.59-5.19,3-7.1a12.32,12.32,0,0,1-.56-4.14Z"/><path id="Q" d="M241.73 241.75a7.62 7.62 0 0 0-3.5 2.3c-.84.83-1.06 3.66-.83 4.48a4.11 4.11 0 0 0 3.7 2.83c2.67.37 3.45-.56 3.6-1.09a1.58 1.58 0 0 0 0-.92.78.78 0 0 0 .06-.87c-.23-.59-2.28-.89-3.4-2.08a11.89 11.89 0 0 1 .37-4.65z"/><path id="R" d="M241.59,225.87a8.36,8.36,0,0,0-2.8-1.85c-1.46-.49-2-.53-2.4-.39-.7.27,1.15,3,1.15,5.19Z"/><path id="S" d="M264.42 263.58l-5.66 2.78a15.54 15.54 0 0 1-4.76.18l-4.12-.06c-1.85 0-2.21-1.78-.27-2.57a11.35 11.35 0 0 1 3.77-.66z"/><path id="T" d="M245.12 225.45c-3.09 0-5.22.62-7 2.6s-1.44 3.1-1.37 4.06-.39 2.49-.29 3.53a4.66 4.66 0 0 0 2.63 3 5.9 5.9 0 0 0 4.07-.5 3.56 3.56 0 0 1 4.15.88c.95 1.31 1.78 4.53.66 6.62-1.25 2.36-3 3.62-6.18 4.9s-6.83 3.18-8.06 4.42-1.46 2.09-.95 2.67c0 0 .05 1.14 1.38.8a1.17 1.17 0 0 0 1.29.57c1-.31 1.62-1.32 2.49-2.09a7.12 7.12 0 0 1 3.62-1.61c1.47-.21 7.54-1.48 10.09-4s3.35-4.52 5.35-5.3 4.75 1.1 5.44 2.14a6.38 6.38 0 0 1 .77 4.34 13.11 13.11 0 0 0-4.56 2.19c-2.28 1.71-2.73 3.86-4 4.4s-2.43-.12-5.56.49-3.89 1.46-4.24 2.18.14 1.68 1.6 1.57a36.15 36.15 0 0 1 5.21-.41c1.38.14 4 1.1 5.13 1.1 1.39 0 10.13.88 14.23-3.82a15.41 15.41 0 0 0 3.78-13.25c-.65-3.65-5.83-8.78-9.83-10.18s-12.13-3.17-13.38-4.63-1-2.93-2.27-4.41a6.47 6.47 0 0 0-4.2-2.26z"/><path id="U" d="M448.5,347.05c5.13-5.24,8.15-26.56,3.14-30.71H426.16c-5,4.15-2,25.46,3.13,30.71l.14.14.18.17c.15.14.3.28.47.42l.12.09.39.3c.22.15.44.3.66.42a16.9,16.9,0,0,0,15.3,0h0a6.18,6.18,0,0,0,.66-.43l.37-.27.15-.12a5.66,5.66,0,0,0,.44-.4l.21-.2Z"/><path id="V" d="M428.37 314.66c-5.81 3.36-5.81 8.8 0 12.16s15.24 3.35 21.06 0 5.81-8.8 0-12.16-15.25-3.36-21.06 0z"/><path id="W" d="M439.23 322.33a17.27 17.27 0 0 1-8.82-1c-4.86-1.83-5.62-5.09-5.62-5.09s4.14-3.19 7.35-2.92a28.67 28.67 0 0 0-9.56-1.23s-2.76-1.51-1.47-6.29c0 0 3-1.59 9.23.14a20.61 20.61 0 0 0-8.27-4.19c-.44-.06 1.11-6.31 2.06-9.06s1.93-2.15 4.16-1.56 9 4 9.62 5.76-.85 5.75-.85 5.75a8.28 8.28 0 0 0 3.1-3.4 7.93 7.93 0 0 1 4.06 2.44c1.74 2 1 3 .1 4.56a19.3 19.3 0 0 1-3.33 4.34s2.24-.45 5-5.21a25.66 25.66 0 0 1 1.46 7c-.03 2.86-3.55 8.34-8.22 9.96z"/><path id="X" d="M403.86 304.64c-6.43 5.91-15.61 12-24.68 16.55a3.8 3.8 0 0 1-2.55.2 84.58 84.58 0 0 1-31.33-18 1.11 1.11 0 0 1 .09-1.77 76.07 76.07 0 0 1 31.19-13.17 6.6 6.6 0 0 1 2.69.15q16.07 4.89 24.67 14.1a1.41 1.41 0 0 1-.08 1.94z"/><path id="Y" d="M408.41 282.94a49.85 49.85 0 0 0-33.7-19.45 1.62 1.62 0 0 1-1.37-1.55v-10.2a1.18 1.18 0 0 1 1.37-1.2 49.85 49.85 0 0 1 33.7 19.46 4.77 4.77 0 0 1 .83 2.48v10.19c0 .75-.37.88-.83.27z"/><path id="Z" d="M364.18 364.38a2.85 2.85 0 0 1-.07 1.44c-.25.67-2 1.94-3 2.46a5.9 5.9 0 0 0-2.38 2.74 12.39 12.39 0 0 1-4.78 5.29 15.58 15.58 0 0 1-9.16 1.42c-3.88-.5-4.31-2.75-4.31-2.75s-.31-2.13.63-2.51 23.07-8.09 23.07-8.09z"/><path id="a" d="M357 285c-21.14-12.2-55.41-12.2-76.55 0-10.57 6.11-15.85 14.1-15.85 22.1v2.67c0 8 5.28 16 15.85 22.1 21.14 12.2 55.41 12.2 76.55 0 10.57-6.11 15.85-15.22 15.85-23.21 0-1.65 0 .09 0-1.56-.01-7.99-5.29-15.98-15.85-22.1z"/><path id="b" d="M280.44 329.21c-21.14-12.2-21.14-32 0-44.2s55.41-12.2 76.55 0 21.14 32 0 44.2-55.41 12.21-76.55 0z"/><path id="c" d="M281.14 303a18.92 18.92 0 0 1-3-4c-1.37-2.43-1.62-5.68-.91-6.08s3.6 2.84 3.6 2.84a17.5 17.5 0 0 1-.31-4.15c.13-2.16.65-4.13 1.27-4.53s2 2.34 2.61 4.32l.95 3.6a30.29 30.29 0 0 1 1.06-4.55c.72-2.06 1.38-2.52 1.88-2.32s.85 1.16 1 3.9a27.18 27.18 0 0 1-.13 3.92l2.15-2.21c1.15-1.09 1.78-1.36 2.14-1.13s.45 2.08-1.48 5.57a19.52 19.52 0 0 1-3.63 4.78s-2.65 1.78-7.2.04z"/><path id="d" d="M244.65 391.55c2.46 1.47 7.54 1.17 10.26-1.17a10.38 10.38 0 0 0 4-6.51 2.27 2.27 0 0 1 1.48 1.58c-.27 1.61-.62 2.86-2.88 5.27-2.91 3.12-9.23 4.93-12.87 2.64a4.39 4.39 0 0 1 .01-1.81z"/><path id="e" d="M310.57 211.1l.69-.4a4.44 4.44 0 0 0 2-3.48v-76.59a4.42 4.42 0 0 0-2-3.47L184.1 53.74a4.43 4.43 0 0 0-4 0l-.69.4a4.44 4.44 0 0 0-2 3.48v76.59a4.44 4.44 0 0 0 2 3.48l127.15 73.41a4.43 4.43 0 0 0 4.01 0z"/><path id="f" d="M291.92,135.7c4.32,5.2,7.27,12.47,7.27,18.86a13.59,13.59,0,0,1-1.67,7l-11.61-14.72Z"/></defs></svg>