<svg xmlns="http://www.w3.org/2000/svg" viewBox="0 0 512 512" xmlns:v="https://vecta.io/nano"><linearGradient id="A" gradientUnits="userSpaceOnUse" x1="2.945" y1="256" x2="509.055" y2="256"><stop offset="0" stop-color="#0cf"/><stop offset="1" stop-color="#006e8a"/></linearGradient><circle cx="256" cy="256" r="253.1" fill="url(#A)"/><g fill="#fff"><path d="M145.3 147.4v36.2a6.02 6.02 0 0 0 6 6h36.2a6.02 6.02 0 0 0 6-6v-36.2a6.02 6.02 0 0 0-6-6h-36.2a6.02 6.02 0 0 0-6 6zm12.1 6h24.1v24.1h-24.1v-24.1zM145.3 256a6.02 6.02 0 0 0 6 6h36.2a6.02 6.02 0 0 0 6-6 6.02 6.02 0 0 0-6-6h-36.2a6.02 6.02 0 0 0-6 6z"/><circle cx="139.3" cy="105.2" r="6"/><circle cx="163.4" cy="105.2" r="6"/><path d="M223.7 370.6a18.1 18.1 0 1 0 0 36.2H266a18.1 18.1 0 1 0 0-36.2h-42.3zm48.3 18.1a6.02 6.02 0 0 1-6 6h-42.2a6.02 6.02 0 0 1-6-6 6.02 6.02 0 0 1 6-6H266a6.02 6.02 0 0 1 6 6zm-120.7-54.3h36.2a6.02 6.02 0 0 0 6-6v-36.2a6.02 6.02 0 0 0-6-6h-36.2a6.02 6.02 0 0 0-6 6v36.2a6.02 6.02 0 0 0 6 6zm6.1-36.2h24.1v24.1h-24.1v-24.1zm48.2-114.6a6.02 6.02 0 0 0 6 6h84.5a6.02 6.02 0 0 0 6-6 6.02 6.02 0 0 0-6-6h-84.5a6.02 6.02 0 0 0-6 6zM308.2 256a6.02 6.02 0 0 0-6-6h-90.5a6.02 6.02 0 0 0-6 6 6.02 6.02 0 0 0 6 6h90.5a6.02 6.02 0 0 0 6-6z"/><path d="M290.1 328.4a6.02 6.02 0 0 0-6-6h-72.4a6.02 6.02 0 0 0-6 6 6.02 6.02 0 0 0 6 6h72.4a6.02 6.02 0 0 0 6-6zm-74.5-116.1c2.5-2.2 2.8-6 .7-8.5-2.2-2.5-6-2.8-8.5-.7h0l-37.3 32-14.2-19c-2-2.7-5.8-3.2-8.4-1.2-2.7 2-3.2 5.8-1.2 8.4l18.1 24.1c1 1.3 2.5 2.2 4.2 2.4h.7c1.4 0 2.8-.5 3.9-1.4l42-36.1zm44.3-46.8a6.02 6.02 0 0 0 6-6 6.02 6.02 0 0 0-6-6h-36.2a6.02 6.02 0 0 0-6 6 6.02 6.02 0 0 0 6 6h36.2zm-36.2 60.3a6.02 6.02 0 0 0-6 6 6.02 6.02 0 0 0 6 6h36.2a6.02 6.02 0 0 0 6-6 6.02 6.02 0 0 0-6-6h-36.2zm202-100.1c-8.6-5.1-19.7-2.4-25 6l-89.4 143.7c-.5.9-.8 1.8-.9 2.8l-2.2 40.4c-.1 2.3 1 4.5 3 5.6.9.5 2 .8 3 .8 1.2 0 2.3-.3 3.3-1l33.7-22.3c.9-.5 1.6-1.3 2.1-2.2L410.1 193c1.6-2.9.5-6.6-2.5-8.2-2.9-1.6-6.6-.5-8.2 2.5l-56.3 105.2-22.4 14.8 1.6-26.9 88.4-142.2c1.8-3.1 5.7-4.1 8.8-2.3s4.1 5.7 2.3 8.8L410.7 166c-1.8 2.8-.9 6.5 1.9 8.3s6.5.9 8.3-1.9c.1-.2.3-.5.4-.7l11.4-21.3c4.8-8.7 1.7-19.7-7-24.7h0zM115.1 256a6.02 6.02 0 0 0 6-6V99.1A12.08 12.08 0 0 1 133.2 87h217.2a12.08 12.08 0 0 1 12.1 12.1v53.6a6.02 6.02 0 0 0 6 6 6.02 6.02 0 0 0 6-6V99.1c0-13.3-10.8-24.1-24.1-24.1H133.2c-13.3 0-24.1 10.8-24.1 24.1V250a6.02 6.02 0 0 0 6 6zm253.5 38.1a6.02 6.02 0 0 0-6 6v112.7a12.08 12.08 0 0 1-12.1 12.1H133.2a12.08 12.08 0 0 1-12.1-12.1V274.1a6.02 6.02 0 0 0-6-6 6.02 6.02 0 0 0-6 6v138.8c0 13.3 10.8 24.1 24.1 24.1h217.2c13.3 0 24.1-10.8 24.1-24.1V300.2c.1-3.4-2.6-6.1-5.9-6.1z"/></g></svg>